RubikHebrew-Bold.ufo
<glyph name="quotedbl" format="1">
  <advance width="459"/>
  <unicode hex="0022"/>
  <outline>
    <contour>
      <point x="367" y="441" type="line" smooth="yes"/>
      <point x="388" y="441"/>
      <point x="395" y="455"/>
      <point x="396" y="469" type="curve" smooth="yes"/>
      <point x="419" y="679" type="line" smooth="yes"/>
      <point x="422" y="698"/>
      <point x="412" y="710"/>
      <point x="395" y="710" type="curve" smooth="yes"/>
      <point x="279" y="710" type="line" smooth="yes"/>
      <point x="262" y="710"/>
      <point x="252" y="698"/>
      <point x="254" y="679" type="curve" smooth="yes"/>
      <point x="277" y="469" type="line" smooth="yes"/>
      <point x="279" y="455"/>
      <point x="285" y="441"/>
      <point x="306" y="441" type="curve" smooth="yes"/>
    </contour>
    <contour>
      <point x="153" y="441" type="line" smooth="yes"/>
      <point x="174" y="441"/>
      <point x="181" y="455"/>
      <point x="182" y="469" type="curve" smooth="yes"/>
      <point x="205" y="679" type="line" smooth="yes"/>
      <point x="208" y="698"/>
      <point x="198" y="710"/>
      <point x="181" y="710" type="curve" smooth="yes"/>
      <point x="65" y="710" type="line" smooth="yes"/>
      <point x="48" y="710"/>
      <point x="38" y="698"/>
      <point x="40" y="679" type="curve" smooth="yes"/>
      <point x="63" y="469" type="line" smooth="yes"/>
      <point x="65" y="455"/>
      <point x="71" y="441"/>
      <point x="92" y="441" type="curve" smooth="yes"/>
    </contour>
  </outline>
</glyph>
<glyph name="parenright" format="1">
  <advance width="388"/>
  <unicode hex="0029"/>
  <outline>
    <contour>
      <point x="233" y="-159"/>
      <point x="348" y="-25"/>
      <point x="348" y="309" type="curve" smooth="yes"/>
      <point x="348" y="643"/>
      <point x="233" y="776"/>
      <point x="48" y="776" type="curve" smooth="yes"/>
      <point x="34" y="776"/>
      <point x="23" y="765"/>
      <point x="23" y="751" type="curve" smooth="yes"/>
      <point x="23" y="661" type="line" smooth="yes"/>
      <point x="23" y="647"/>
      <point x="34" y="637"/>
      <point x="47" y="636" type="curve" smooth="yes"/>
      <point x="157" y="629"/>
      <point x="187" y="511"/>
      <point x="187" y="309" type="curve" smooth="yes"/>
      <point x="187" y="107"/>
      <point x="157" y="-12"/>
      <point x="47" y="-19" type="curve" smooth="yes"/>
      <point x="34" y="-20"/>
      <point x="23" y="-30"/>
      <point x="23" y="-44" type="curve" smooth="yes"/>
      <point x="23" y="-134" type="line" smooth="yes"/>
      <point x="23" y="-148"/>
      <point x="34" y="-159"/>
      <point x="48" y="-159" type="curve" smooth="yes"/>
    </contour>
  </outline>
</glyph>
<glyph name="period" format="1">
  <advance width="287"/>
  <unicode hex="002E"/>
  <outline>
    <contour>
      <point x="209" y="0" type="line" smooth="yes"/>
      <point x="224" y="0"/>
      <point x="235" y="11"/>
      <point x="235" y="25" type="curve" smooth="yes"/>
      <point x="235" y="157" type="line" smooth="yes"/>
      <point x="235" y="172"/>
      <point x="224" y="183"/>
      <point x="209" y="183" type="curve" smooth="yes"/>
      <point x="77" y="183" type="line" smooth="yes"/>
      <point x="63" y="183"/>
      <point x="52" y="172"/>
      <point x="52" y="157" type="curve" smooth="yes"/>
      <point x="52" y="25" type="line" smooth="yes"/>
      <point x="52" y="11"/>
      <point x="63" y="0"/>
      <point x="77" y="0" type="curve" smooth="yes"/>
    </contour>
  </outline>
</glyph>
<glyph name="four" format="1">
  <advance width="688"/>
  <unicode hex="0034"/>
  <outline>
    <contour>
      <point x="518" y="0" type="line" smooth="yes"/>
      <point x="533" y="0"/>
      <point x="544" y="11"/>
      <point x="544" y="25" type="curve" smooth="yes"/>
      <point x="544" y="135" type="line"/>
      <point x="633" y="135" type="line" smooth="yes"/>
      <point x="647" y="135"/>
      <point x="658" y="146"/>
      <point x="658" y="160" type="curve" smooth="yes"/>
      <point x="658" y="265" type="line" smooth="yes"/>
      <point x="658" y="278"/>
      <point x="648" y="290"/>
      <point x="632" y="290" type="curve" smooth="yes"/>
      <point x="544" y="290" type="line"/>
      <point x="544" y="675" type="line" smooth="yes"/>
      <point x="544" y="689"/>
      <point x="533" y="700"/>
      <point x="518" y="700" type="curve" smooth="yes"/>
      <point x="366" y="700" type="line" smooth="yes"/>
      <point x="350" y="700"/>
      <point x="337" y="693"/>
      <point x="329" y="683" type="curve" smooth="yes"/>
      <point x="39" y="291" type="line" smooth="yes"/>
      <point x="33" y="283"/>
      <point x="28" y="273"/>
      <point x="28" y="261" type="curve" smooth="yes"/>
      <point x="28" y="160" type="line" smooth="yes"/>
      <point x="28" y="146"/>
      <point x="39" y="135"/>
      <point x="53" y="135" type="curve" smooth="yes"/>
      <point x="363" y="135" type="line"/>
      <point x="363" y="25" type="line" smooth="yes"/>
      <point x="363" y="11"/>
      <point x="374" y="0"/>
      <point x="388" y="0" type="curve" smooth="yes"/>
    </contour>
    <contour>
      <point x="367" y="508" type="line"/>
      <point x="367" y="283" type="line"/>
      <point x="206" y="283" type="line"/>
    </contour>
  </outline>
</glyph>
<glyph name="colon" format="1">
  <advance width="295"/>
  <unicode hex="003A"/>
  <outline>
    <contour>
      <point x="213" y="350" type="line" smooth="yes"/>
      <point x="228" y="350"/>
      <point x="239" y="361"/>
      <point x="239" y="375" type="curve" smooth="yes"/>
      <point x="239" y="501" type="line" smooth="yes"/>
      <point x="239" y="515"/>
      <point x="228" y="526"/>
      <point x="213" y="526" type="curve" smooth="yes"/>
      <point x="81" y="526" type="line" smooth="yes"/>
      <point x="67" y="526"/>
      <point x="56" y="515"/>
      <point x="56" y="501" type="curve" smooth="yes"/>
      <point x="56" y="375" type="line" smooth="yes"/>
      <point x="56" y="361"/>
      <point x="67" y="350"/>
      <point x="81" y="350" type="curve" smooth="yes"/>
    </contour>
    <contour>
      <point x="213" y="0" type="line" smooth="yes"/>
      <point x="228" y="0"/>
      <point x="239" y="11"/>
      <point x="239" y="25" type="curve" smooth="yes"/>
      <point x="239" y="151" type="line" smooth="yes"/>
      <point x="239" y="165"/>
      <point x="228" y="176"/>
      <point x="213" y="176" type="curve" smooth="yes"/>
      <point x="81" y="176" type="line" smooth="yes"/>
      <point x="67" y="176"/>
      <point x="56" y="165"/>
      <point x="56" y="151" type="curve" smooth="yes"/>
      <point x="56" y="25" type="line" smooth="yes"/>
      <point x="56" y="11"/>
      <point x="67" y="0"/>
      <point x="81" y="0" type="curve" smooth="yes"/>
    </contour>
  </outline>
</glyph>
<glyph name="greater" format="1">
  <advance width="519"/>
  <unicode hex="003E"/>
  <outline>
    <contour>
      <point x="84" y="37"/>
      <point x="91" y="40"/>
      <point x="96" y="43" type="curve" smooth="yes"/>
      <point x="461" y="291" type="line" smooth="yes"/>
      <point x="480" y="304"/>
      <point x="490" y="315"/>
      <point x="490" y="335" type="curve" smooth="yes"/>
      <point x="490" y="367" type="line"/>
      <point x="490" y="387"/>
      <point x="480" y="397"/>
      <point x="461" y="410" type="curve" smooth="yes"/>
      <point x="96" y="658" type="line" smooth="yes"/>
      <point x="91" y="661"/>
      <point x="84" y="664"/>
      <point x="80" y="664" type="curve" smooth="yes"/>
      <point x="68" y="664"/>
      <point x="59" y="656"/>
      <point x="59" y="643" type="curve" smooth="yes"/>
      <point x="59" y="530" type="line" smooth="yes"/>
      <point x="59" y="508"/>
      <point x="74" y="498"/>
      <point x="87" y="490" type="curve" smooth="yes"/>
      <point x="300" y="351" type="line"/>
      <point x="87" y="211" type="line" smooth="yes"/>
      <point x="74" y="202"/>
      <point x="59" y="193"/>
      <point x="59" y="172" type="curve" smooth="yes"/>
      <point x="59" y="58" type="line" smooth="yes"/>
      <point x="59" y="46"/>
      <point x="68" y="37"/>
      <point x="80" y="37" type="curve" smooth="yes"/>
    </contour>
  </outline>
</glyph>
<glyph name="D" format="1">
  <advance width="719"/>
  <unicode hex="0044"/>
  <outline>
    <contour>
      <point x="361" y="0" type="line" smooth="yes"/>
      <point x="557" y="0"/>
      <point x="665" y="87"/>
      <point x="672" y="274" type="curve" smooth="yes"/>
      <point x="673" y="330"/>
      <point x="673" y="369"/>
      <point x="672" y="427" type="curve" smooth="yes"/>
      <point x="666" y="604"/>
      <point x="552" y="700"/>
      <point x="356" y="700" type="curve"/>
      <point x="93" y="700" type="line" smooth="yes"/>
      <point x="79" y="700"/>
      <point x="68" y="689"/>
      <point x="68" y="674" type="curve" smooth="yes"/>
      <point x="68" y="25" type="line" smooth="yes"/>
      <point x="68" y="11"/>
      <point x="79" y="0"/>
      <point x="93" y="0" type="curve" smooth="yes"/>
    </contour>
    <contour>
      <point x="256" y="550" type="line"/>
      <point x="352" y="550" type="line" smooth="yes"/>
      <point x="435" y="550"/>
      <point x="479" y="511"/>
      <point x="482" y="425" type="curve" smooth="yes"/>
      <point x="484" y="368"/>
      <point x="484" y="334"/>
      <point x="482" y="276" type="curve" smooth="yes"/>
      <point x="479" y="187"/>
      <point x="439" y="150"/>
      <point x="357" y="150" type="curve" smooth="yes"/>
      <point x="256" y="150" type="line"/>
    </contour>
  </outline>
</glyph>
<glyph name="Q" format="1">
  <advance width="715"/>
  <unicode hex="0051"/>
  <outline>
    <contour>
      <point x="652" y="-65" type="line"/>
      <point x="664" y="-65"/>
      <point x="673" y="-55"/>
      <point x="672" y="-44" type="curve" smooth="yes"/>
      <point x="672" y="-40"/>
      <point x="670" y="-36"/>
      <point x="669" y="-34" type="curve"/>
      <point x="595" y="71" type="line"/>
      <point x="639" y="116"/>
      <point x="664" y="180"/>
      <point x="667" y="262" type="curve" smooth="yes"/>
      <point x="669" y="318"/>
      <point x="669" y="377"/>
      <point x="667" y="435" type="curve" smooth="yes"/>
      <point x="661" y="614"/>
      <point x="539" y="710"/>
      <point x="357" y="710" type="curve" smooth="yes"/>
      <point x="174" y="710"/>
      <point x="52" y="614"/>
      <point x="46" y="435" type="curve" smooth="yes"/>
      <point x="44" y="377"/>
      <point x="44" y="318"/>
      <point x="46" y="262" type="curve" smooth="yes"/>
      <point x="53" y="80"/>
      <point x="171" y="-10"/>
      <point x="357" y="-10" type="curve" smooth="yes"/>
      <point x="388" y="-10"/>
      <point x="417" y="-6"/>
      <point x="442" y="2" type="curve"/>
      <point x="475" y="-42" type="line"/>
      <point x="481" y="-50"/>
      <point x="492" y="-65"/>
      <point x="514" y="-65" type="curve"/>
    </contour>
    <contour>
      <point x="290" y="140"/>
      <point x="244" y="178"/>
      <point x="241" y="268" type="curve" smooth="yes"/>
      <point x="239" y="326"/>
      <point x="239" y="376"/>
      <point x="241" y="432" type="curve" smooth="yes"/>
      <point x="244" y="522"/>
      <point x="291" y="560"/>
      <point x="357" y="560" type="curve" smooth="yes"/>
      <point x="424" y="560"/>
      <point x="471" y="522"/>
      <point x="474" y="432" type="curve" smooth="yes"/>
      <point x="476" y="376"/>
      <point x="476" y="326"/>
      <point x="474" y="268" type="curve" smooth="yes"/>
      <point x="471" y="178"/>
      <point x="425" y="140"/>
      <point x="357" y="140" type="curve" smooth="yes"/>
    </contour>
  </outline>
</glyph>
<glyph name="Y" format="1">
  <advance width="684"/>
  <unicode hex="0059"/>
  <outline>
    <contour>
      <point x="410" y="0" type="line" smooth="yes"/>
      <point x="425" y="0"/>
      <point x="436" y="11"/>
      <point x="436" y="25" type="curve" smooth="yes"/>
      <point x="436" y="238" type="line"/>
      <point x="667" y="668" type="line" smooth="yes"/>
      <point x="669" y="671"/>
      <point x="670" y="675"/>
      <point x="670" y="679" type="curve" smooth="yes"/>
      <point x="670" y="690"/>
      <point x="660" y="700"/>
      <point x="649" y="700" type="curve" smooth="yes"/>
      <point x="517" y="700" type="line" smooth="yes"/>
      <point x="496" y="700"/>
      <point x="485" y="686"/>
      <point x="481" y="678" type="curve" smooth="yes"/>
      <point x="342" y="427" type="line"/>
      <point x="203" y="678" type="line" smooth="yes"/>
      <point x="199" y="686"/>
      <point x="188" y="700"/>
      <point x="167" y="700" type="curve" smooth="yes"/>
      <point x="35" y="700" type="line" smooth="yes"/>
      <point x="24" y="700"/>
      <point x="14" y="690"/>
      <point x="14" y="679" type="curve" smooth="yes"/>
      <point x="14" y="675"/>
      <point x="15" y="671"/>
      <point x="17" y="668" type="curve" smooth="yes"/>
      <point x="248" y="238" type="line"/>
      <point x="248" y="25" type="line" smooth="yes"/>
      <point x="248" y="11"/>
      <point x="259" y="0"/>
      <point x="273" y="0" type="curve" smooth="yes"/>
    </contour>
  </outline>
</glyph>
<glyph name="b" format="1">
  <advance width="634"/>
  <unicode hex="0062"/>
  <outline>
    <contour>
      <point x="511" y="-10"/>
      <point x="588" y="74"/>
      <point x="594" y="225" type="curve" smooth="yes"/>
      <point x="595" y="251"/>
      <point x="595" y="269"/>
      <point x="594" y="296" type="curve" smooth="yes"/>
      <point x="589" y="440"/>
      <point x="511" y="530"/>
      <point x="381" y="530" type="curve" smooth="yes"/>
      <point x="316" y="530"/>
      <point x="269" y="506"/>
      <point x="237" y="472" type="curve"/>
      <point x="237" y="685" type="line" smooth="yes"/>
      <point x="237" y="699"/>
      <point x="226" y="710"/>
      <point x="211" y="710" type="curve" smooth="yes"/>
      <point x="82" y="710" type="line" smooth="yes"/>
      <point x="68" y="710"/>
      <point x="57" y="699"/>
      <point x="57" y="685" type="curve" smooth="yes"/>
      <point x="57" y="25" type="line" smooth="yes"/>
      <point x="57" y="11"/>
      <point x="68" y="0"/>
      <point x="82" y="0" type="curve" smooth="yes"/>
      <point x="201" y="0" type="line" smooth="yes"/>
      <point x="216" y="0"/>
      <point x="227" y="11"/>
      <point x="227" y="25" type="curve" smooth="yes"/>
      <point x="227" y="56" type="line"/>
      <point x="259" y="17"/>
      <point x="308" y="-10"/>
      <point x="381" y="-10" type="curve" smooth="yes"/>
    </contour>
    <contour>
      <point x="261" y="129"/>
      <point x="239" y="175"/>
      <point x="237" y="226" type="curve" smooth="yes"/>
      <point x="235" y="253"/>
      <point x="235" y="275"/>
      <point x="237" y="301" type="curve" smooth="yes"/>
      <point x="239" y="349"/>
      <point x="264" y="391"/>
      <point x="324" y="391" type="curve" smooth="yes"/>
      <point x="388" y="391"/>
      <point x="406" y="347"/>
      <point x="410" y="291" type="curve" smooth="yes"/>
      <point x="412" y="271"/>
      <point x="412" y="249"/>
      <point x="410" y="229" type="curve" smooth="yes"/>
      <point x="406" y="173"/>
      <point x="388" y="129"/>
      <point x="324" y="129" type="curve" smooth="yes"/>
    </contour>
  </outline>
</glyph>
<glyph name="d" format="1">
  <advance width="634"/>
  <unicode hex="0064"/>
  <outline>
    <contour>
      <point x="326" y="-10"/>
      <point x="375" y="17"/>
      <point x="407" y="56" type="curve"/>
      <point x="407" y="25" type="line" smooth="yes"/>
      <point x="407" y="11"/>
      <point x="418" y="0"/>
      <point x="433" y="0" type="curve" smooth="yes"/>
      <point x="552" y="0" type="line" smooth="yes"/>
      <point x="566" y="0"/>
      <point x="577" y="11"/>
      <point x="577" y="25" type="curve" smooth="yes"/>
      <point x="577" y="685" type="line" smooth="yes"/>
      <point x="577" y="699"/>
      <point x="566" y="710"/>
      <point x="552" y="710" type="curve" smooth="yes"/>
      <point x="423" y="710" type="line" smooth="yes"/>
      <point x="408" y="710"/>
      <point x="397" y="699"/>
      <point x="397" y="685" type="curve" smooth="yes"/>
      <point x="397" y="472" type="line"/>
      <point x="365" y="506"/>
      <point x="318" y="530"/>
      <point x="253" y="530" type="curve" smooth="yes"/>
      <point x="123" y="530"/>
      <point x="45" y="440"/>
      <point x="40" y="296" type="curve" smooth="yes"/>
      <point x="39" y="269"/>
      <point x="39" y="251"/>
      <point x="40" y="225" type="curve" smooth="yes"/>
      <point x="46" y="74"/>
      <point x="123" y="-10"/>
      <point x="253" y="-10" type="curve" smooth="yes"/>
    </contour>
    <contour>
      <point x="246" y="129"/>
      <point x="228" y="173"/>
      <point x="224" y="229" type="curve" smooth="yes"/>
      <point x="222" y="249"/>
      <point x="222" y="271"/>
      <point x="224" y="291" type="curve" smooth="yes"/>
      <point x="228" y="347"/>
      <point x="246" y="391"/>
      <point x="310" y="391" type="curve" smooth="yes"/>
      <point x="370" y="391"/>
      <point x="395" y="349"/>
      <point x="397" y="301" type="curve" smooth="yes"/>
      <point x="399" y="275"/>
      <point x="399" y="253"/>
      <point x="397" y="226" type="curve" smooth="yes"/>
      <point x="395" y="175"/>
      <point x="373" y="129"/>
      <point x="310" y="129" type="curve" smooth="yes"/>
    </contour>
  </outline>
</glyph>
<glyph name="f" format="1">
  <advance width="448"/>
  <unicode hex="0066"/>
  <outline>
    <contour>
      <point x="265" y="0" type="line" smooth="yes"/>
      <point x="279" y="0"/>
      <point x="290" y="11"/>
      <point x="290" y="25" type="curve" smooth="yes"/>
      <point x="290" y="384" type="line"/>
      <point x="410" y="384" type="line" smooth="yes"/>
      <point x="424" y="384"/>
      <point x="435" y="395"/>
      <point x="435" y="409" type="curve" smooth="yes"/>
      <point x="435" y="495" type="line" smooth="yes"/>
      <point x="435" y="509"/>
      <point x="424" y="520"/>
      <point x="410" y="520" type="curve" smooth="yes"/>
      <point x="290" y="520" type="line"/>
      <point x="290" y="545" type="line" smooth="yes"/>
      <point x="290" y="583"/>
      <point x="305" y="604"/>
      <point x="349" y="604" type="curve" smooth="yes"/>
      <point x="420" y="604" type="line" smooth="yes"/>
      <point x="434" y="604"/>
      <point x="445" y="615"/>
      <point x="445" y="629" type="curve" smooth="yes"/>
      <point x="445" y="715" type="line" smooth="yes"/>
      <point x="445" y="729"/>
      <point x="434" y="740"/>
      <point x="420" y="740" type="curve" smooth="yes"/>
      <point x="341" y="740" type="line" smooth="yes"/>
      <point x="203" y="740"/>
      <point x="117" y="689"/>
      <point x="117" y="550" type="curve" smooth="yes"/>
      <point x="117" y="520" type="line"/>
      <point x="41" y="520" type="line" smooth="yes"/>
      <point x="27" y="520"/>
      <point x="16" y="509"/>
      <point x="16" y="495" type="curve" smooth="yes"/>
      <point x="16" y="409" type="line" smooth="yes"/>
      <point x="16" y="395"/>
      <point x="27" y="384"/>
      <point x="41" y="384" type="curve" smooth="yes"/>
      <point x="117" y="384" type="line"/>
      <point x="117" y="25" type="line" smooth="yes"/>
      <point x="117" y="11"/>
      <point x="128" y="0"/>
      <point x="142" y="0" type="curve" smooth="yes"/>
    </contour>
  </outline>
</glyph>
<glyph name="g" format="1">
  <advance width="638"/>
  <unicode hex="0067"/>
  <outline>
    <contour>
      <point x="481" y="-220"/>
      <point x="580" y="-140"/>
      <point x="580" y="15" type="curve"/>
      <point x="579" y="494" type="line"/>
      <point x="579" y="509"/>
      <point x="568" y="520"/>
      <point x="554" y="520" type="curve"/>
      <point x="432" y="520" type="line"/>
      <point x="417" y="520"/>
      <point x="406" y="509"/>
      <point x="406" y="494" type="curve"/>
      <point x="406" y="458" type="line"/>
      <point x="374" y="500"/>
      <point x="322" y="530"/>
      <point x="252" y="530" type="curve" smooth="yes"/>
      <point x="116" y="530"/>
      <point x="45" y="440"/>
      <point x="39" y="296" type="curve"/>
      <point x="38" y="276"/>
      <point x="38" y="263"/>
      <point x="39" y="243" type="curve"/>
      <point x="46" y="93"/>
      <point x="116" y="12"/>
      <point x="252" y="12" type="curve" smooth="yes"/>
      <point x="318" y="12"/>
      <point x="365" y="34"/>
      <point x="396" y="67" type="curve"/>
      <point x="396" y="0" type="line"/>
      <point x="396" y="-69"/>
      <point x="367" y="-93"/>
      <point x="312" y="-93" type="curve" smooth="yes"/>
      <point x="261" y="-93"/>
      <point x="245" y="-68"/>
      <point x="236" y="-46" type="curve" smooth="yes"/>
      <point x="230" y="-32"/>
      <point x="222" y="-26"/>
      <point x="209" y="-26" type="curve"/>
      <point x="74" y="-26" type="line"/>
      <point x="60" y="-26"/>
      <point x="48" y="-37"/>
      <point x="49" y="-52" type="curve" smooth="yes"/>
      <point x="52" y="-94"/>
      <point x="109" y="-220"/>
      <point x="317" y="-220" type="curve" smooth="yes"/>
    </contour>
    <contour>
      <point x="246" y="147"/>
      <point x="226" y="191"/>
      <point x="223" y="247" type="curve" smooth="yes"/>
      <point x="222" y="261"/>
      <point x="222" y="278"/>
      <point x="223" y="291" type="curve"/>
      <point x="226" y="347"/>
      <point x="246" y="391"/>
      <point x="309" y="391" type="curve" smooth="yes"/>
      <point x="370" y="391"/>
      <point x="393" y="348"/>
      <point x="397" y="299" type="curve" smooth="yes"/>
      <point x="398" y="286"/>
      <point x="398" y="253"/>
      <point x="397" y="239" type="curve" smooth="yes"/>
      <point x="393" y="191"/>
      <point x="370" y="147"/>
      <point x="309" y="147" type="curve" smooth="yes"/>
    </contour>
  </outline>
</glyph>
<glyph name="l" format="1">
  <advance width="290"/>
  <unicode hex="006C"/>
  <outline>
    <contour>
      <point x="207" y="0" type="line" smooth="yes"/>
      <point x="222" y="0"/>
      <point x="233" y="11"/>
      <point x="233" y="25" type="curve" smooth="yes"/>
      <point x="233" y="685" type="line" smooth="yes"/>
      <point x="233" y="699"/>
      <point x="222" y="710"/>
      <point x="207" y="710" type="curve" smooth="yes"/>
      <point x="82" y="710" type="line" smooth="yes"/>
      <point x="68" y="710"/>
      <point x="57" y="699"/>
      <point x="57" y="685" type="curve" smooth="yes"/>
      <point x="57" y="25" type="line" smooth="yes"/>
      <point x="57" y="11"/>
      <point x="68" y="0"/>
      <point x="82" y="0" type="curve" smooth="yes"/>
    </contour>
  </outline>
</glyph>
<glyph name="o" format="1">
  <advance width="614"/>
  <unicode hex="006F"/>
  <outline>
    <contour>
      <point x="478" y="-10"/>
      <point x="566" y="74"/>
      <point x="574" y="215" type="curve" smooth="yes"/>
      <point x="576" y="241"/>
      <point x="576" y="279"/>
      <point x="574" y="305" type="curve" smooth="yes"/>
      <point x="566" y="446"/>
      <point x="470" y="530"/>
      <point x="307" y="530" type="curve" smooth="yes"/>
      <point x="144" y="530"/>
      <point x="48" y="446"/>
      <point x="40" y="305" type="curve" smooth="yes"/>
      <point x="38" y="279"/>
      <point x="38" y="241"/>
      <point x="40" y="215" type="curve" smooth="yes"/>
      <point x="48" y="74"/>
      <point x="136" y="-10"/>
      <point x="307" y="-10" type="curve" smooth="yes"/>
    </contour>
    <contour>
      <point x="250" y="116"/>
      <point x="226" y="150"/>
      <point x="223" y="220" type="curve" smooth="yes"/>
      <point x="222" y="240"/>
      <point x="222" y="280"/>
      <point x="223" y="300" type="curve" smooth="yes"/>
      <point x="226" y="368"/>
      <point x="250" y="404"/>
      <point x="307" y="404" type="curve" smooth="yes"/>
      <point x="363" y="404"/>
      <point x="387" y="368"/>
      <point x="390" y="300" type="curve" smooth="yes"/>
      <point x="391" y="280"/>
      <point x="391" y="240"/>
      <point x="390" y="220" type="curve" smooth="yes"/>
      <point x="387" y="150"/>
      <point x="363" y="116"/>
      <point x="307" y="116" type="curve" smooth="yes"/>
    </contour>
  </outline>
</glyph>
<glyph name="q" format="1">
  <advance width="634"/>
  <unicode hex="0071"/>
  <outline>
    <contour>
      <point x="552" y="-190" type="line" smooth="yes"/>
      <point x="566" y="-190"/>
      <point x="577" y="-179"/>
      <point x="577" y="-165" type="curve" smooth="yes"/>
      <point x="577" y="495" type="line" smooth="yes"/>
      <point x="577" y="509"/>
      <point x="566" y="520"/>
      <point x="552" y="520" type="curve" smooth="yes"/>
      <point x="433" y="520" type="line" smooth="yes"/>
      <point x="418" y="520"/>
      <point x="407" y="509"/>
      <point x="407" y="495" type="curve" smooth="yes"/>
      <point x="407" y="459" type="line"/>
      <point x="376" y="500"/>
      <point x="326" y="530"/>
      <point x="253" y="530" type="curve" smooth="yes"/>
      <point x="123" y="530"/>
      <point x="46" y="447"/>
      <point x="40" y="297" type="curve" smooth="yes"/>
      <point x="39" y="270"/>
      <point x="39" y="249"/>
      <point x="40" y="222" type="curve" smooth="yes"/>
      <point x="45" y="79"/>
      <point x="123" y="-10"/>
      <point x="253" y="-10" type="curve" smooth="yes"/>
      <point x="318" y="-10"/>
      <point x="366" y="13"/>
      <point x="397" y="56" type="curve"/>
      <point x="397" y="-165" type="line" smooth="yes"/>
      <point x="397" y="-179"/>
      <point x="408" y="-190"/>
      <point x="423" y="-190" type="curve" smooth="yes"/>
    </contour>
    <contour>
      <point x="246" y="129"/>
      <point x="228" y="173"/>
      <point x="224" y="229" type="curve" smooth="yes"/>
      <point x="222" y="249"/>
      <point x="222" y="271"/>
      <point x="224" y="291" type="curve" smooth="yes"/>
      <point x="228" y="347"/>
      <point x="246" y="391"/>
      <point x="310" y="391" type="curve" smooth="yes"/>
      <point x="373" y="391"/>
      <point x="395" y="345"/>
      <point x="397" y="294" type="curve" smooth="yes"/>
      <point x="399" y="267"/>
      <point x="399" y="245"/>
      <point x="397" y="219" type="curve" smooth="yes"/>
      <point x="395" y="171"/>
      <point x="370" y="129"/>
      <point x="310" y="129" type="curve" smooth="yes"/>
    </contour>
  </outline>
</glyph>
<glyph name="u" format="1">
  <advance width="644"/>
  <unicode hex="0075"/>
  <outline>
    <contour>
      <point x="324" y="-10"/>
      <point x="380" y="15"/>
      <point x="414" y="63" type="curve"/>
      <point x="414" y="25" type="line" smooth="yes"/>
      <point x="414" y="11"/>
      <point x="425" y="0"/>
      <point x="440" y="0" type="curve" smooth="yes"/>
      <point x="562" y="0" type="line" smooth="yes"/>
      <point x="576" y="0"/>
      <point x="587" y="11"/>
      <point x="587" y="25" type="curve" smooth="yes"/>
      <point x="587" y="495" type="line" smooth="yes"/>
      <point x="587" y="509"/>
      <point x="576" y="520"/>
      <point x="562" y="520" type="curve" smooth="yes"/>
      <point x="430" y="520" type="line" smooth="yes"/>
      <point x="415" y="520"/>
      <point x="404" y="509"/>
      <point x="404" y="495" type="curve" smooth="yes"/>
      <point x="404" y="222" type="line" smooth="yes"/>
      <point x="404" y="163"/>
      <point x="372" y="129"/>
      <point x="319" y="129" type="curve" smooth="yes"/>
      <point x="264" y="129"/>
      <point x="236" y="161"/>
      <point x="236" y="222" type="curve" smooth="yes"/>
      <point x="236" y="495" type="line" smooth="yes"/>
      <point x="236" y="509"/>
      <point x="225" y="520"/>
      <point x="210" y="520" type="curve" smooth="yes"/>
      <point x="77" y="520" type="line" smooth="yes"/>
      <point x="63" y="520"/>
      <point x="52" y="509"/>
      <point x="52" y="495" type="curve" smooth="yes"/>
      <point x="52" y="216" type="line"/>
      <point x="52" y="68"/>
      <point x="135" y="-10"/>
      <point x="248" y="-10" type="curve" smooth="yes"/>
    </contour>
  </outline>
</glyph>
<glyph name="cent" format="1">
  <advance width="600"/>
  <unicode hex="00A2"/>
  <outline>
    <contour>
      <point x="350" y="-100" type="line"/>
      <point x="364" y="-100"/>
      <point x="375" y="-89"/>
      <point x="375" y="-75" type="curve"/>
      <point x="375" y="-2" type="line"/>
      <point x="515" y="26"/>
      <point x="562" y="132"/>
      <point x="565" y="172" type="curve" smooth="yes"/>
      <point x="566" y="187"/>
      <point x="553" y="198"/>
      <point x="539" y="198" type="curve"/>
      <point x="405" y="198" type="line"/>
      <point x="390" y="198"/>
      <point x="383" y="191"/>
      <point x="377" y="177" type="curve" smooth="yes"/>
      <point x="363" y="139"/>
      <point x="340" y="123"/>
      <point x="301" y="123" type="curve" smooth="yes"/>
      <point x="253" y="123"/>
      <point x="226" y="154"/>
      <point x="224" y="224" type="curve" smooth="yes"/>
      <point x="223" y="244"/>
      <point x="223" y="269"/>
      <point x="224" y="295" type="curve" smooth="yes"/>
      <point x="226" y="363"/>
      <point x="253" y="397"/>
      <point x="301" y="397" type="curve" smooth="yes"/>
      <point x="338" y="397"/>
      <point x="362" y="381"/>
      <point x="377" y="343" type="curve" smooth="yes"/>
      <point x="383" y="329"/>
      <point x="390" y="322"/>
      <point x="405" y="322" type="curve"/>
      <point x="539" y="322" type="line"/>
      <point x="553" y="322"/>
      <point x="566" y="333"/>
      <point x="565" y="348" type="curve" smooth="yes"/>
      <point x="562" y="392"/>
      <point x="511" y="493"/>
      <point x="375" y="522" type="curve"/>
      <point x="375" y="585" type="line"/>
      <point x="375" y="599"/>
      <point x="364" y="610"/>
      <point x="350" y="610" type="curve"/>
      <point x="245" y="610" type="line"/>
      <point x="231" y="610"/>
      <point x="220" y="599"/>
      <point x="220" y="585" type="curve"/>
      <point x="220" y="520" type="line"/>
      <point x="114" y="497"/>
      <point x="44" y="419"/>
      <point x="40" y="300" type="curve" smooth="yes"/>
      <point x="39" y="278"/>
      <point x="39" y="240"/>
      <point x="40" y="219" type="curve" smooth="yes"/>
      <point x="45" y="100"/>
      <point x="115" y="23"/>
      <point x="220" y="-1" type="curve"/>
      <point x="220" y="-75" type="line"/>
      <point x="220" y="-89"/>
      <point x="231" y="-100"/>
      <point x="245" y="-100" type="curve"/>
    </contour>
  </outline>
</glyph>
<glyph name="sterling" format="1">
  <advance width="725"/>
  <unicode hex="00A3"/>
  <outline>
    <contour>
      <point x="590" y="-8"/>
      <point x="679" y="62"/>
      <point x="682" y="189" type="curve" smooth="yes"/>
      <point x="682" y="199"/>
      <point x="675" y="208"/>
      <point x="663" y="208" type="curve" smooth="yes"/>
      <point x="567" y="208" type="line" smooth="yes"/>
      <point x="557" y="208"/>
      <point x="552" y="201"/>
      <point x="549" y="196" type="curve" smooth="yes"/>
      <point x="534" y="163"/>
      <point x="513" y="140"/>
      <point x="470" y="140" type="curve" smooth="yes"/>
      <point x="414" y="140"/>
      <point x="384" y="176"/>
      <point x="320" y="189" type="curve"/>
      <point x="321" y="218"/>
      <point x="318" y="245"/>
      <point x="316" y="272" type="curve"/>
      <point x="455" y="272" type="line" smooth="yes"/>
      <point x="469" y="272"/>
      <point x="480" y="283"/>
      <point x="480" y="297" type="curve" smooth="yes"/>
      <point x="480" y="377" type="line" smooth="yes"/>
      <point x="480" y="391"/>
      <point x="469" y="402"/>
      <point x="455" y="402" type="curve" smooth="yes"/>
      <point x="309" y="402" type="line"/>
      <point x="308" y="417"/>
      <point x="307" y="432"/>
      <point x="307" y="448" type="curve" smooth="yes"/>
      <point x="307" y="518"/>
      <point x="332" y="561"/>
      <point x="390" y="561" type="curve" smooth="yes"/>
      <point x="439" y="561"/>
      <point x="465" y="534"/>
      <point x="480" y="479" type="curve" smooth="yes"/>
      <point x="486" y="461"/>
      <point x="497" y="453"/>
      <point x="515" y="453" type="curve" smooth="yes"/>
      <point x="657" y="453" type="line" smooth="yes"/>
      <point x="669" y="453"/>
      <point x="678" y="463"/>
      <point x="678" y="475" type="curve" smooth="yes"/>
      <point x="675" y="620"/>
      <point x="561" y="711"/>
      <point x="391" y="711" type="curve" smooth="yes"/>
      <point x="210" y="711"/>
      <point x="113" y="618"/>
      <point x="113" y="449" type="curve" smooth="yes"/>
      <point x="113" y="432"/>
      <point x="113" y="417"/>
      <point x="115" y="402" type="curve"/>
      <point x="68" y="402" type="line" smooth="yes"/>
      <point x="54" y="402"/>
      <point x="43" y="391"/>
      <point x="43" y="377" type="curve" smooth="yes"/>
      <point x="43" y="297" type="line" smooth="yes"/>
      <point x="43" y="283"/>
      <point x="54" y="272"/>
      <point x="68" y="272" type="curve" smooth="yes"/>
      <point x="144" y="272" type="line"/>
      <point x="148" y="244"/>
      <point x="152" y="218"/>
      <point x="153" y="192" type="curve"/>
      <point x="87" y="164"/>
      <point x="45" y="102"/>
      <point x="42" y="18" type="curve" smooth="yes"/>
      <point x="42" y="8"/>
      <point x="50" y="0"/>
      <point x="61" y="0" type="curve" smooth="yes"/>
      <point x="171" y="0" type="line" smooth="yes"/>
      <point x="182" y="0"/>
      <point x="186" y="7"/>
      <point x="188" y="13" type="curve" smooth="yes"/>
      <point x="199" y="43"/>
      <point x="216" y="61"/>
      <point x="253" y="61" type="curve" smooth="yes"/>
      <point x="328" y="61"/>
      <point x="387" y="-8"/>
      <point x="498" y="-8" type="curve" smooth="yes"/>
    </contour>
  </outline>
</glyph>
<glyph name="currency" format="1">
  <advance width="615"/>
  <unicode hex="00A4"/>
  <outline>
    <contour>
      <point x="121" y="39"/>
      <point x="137" y="39"/>
      <point x="146" y="49" type="curve" smooth="yes"/>
      <point x="192" y="95" type="line"/>
      <point x="225" y="74"/>
      <point x="265" y="63"/>
      <point x="308" y="63" type="curve" smooth="yes"/>
      <point x="350" y="63"/>
      <point x="389" y="74"/>
      <point x="424" y="95" type="curve"/>
      <point x="469" y="49" type="line" smooth="yes"/>
      <point x="479" y="39"/>
      <point x="494" y="39"/>
      <point x="505" y="49" type="curve" smooth="yes"/>
      <point x="559" y="103" type="line" smooth="yes"/>
      <point x="568" y="113"/>
      <point x="568" y="129"/>
      <point x="559" y="139" type="curve" smooth="yes"/>
      <point x="513" y="184" type="line"/>
      <point x="532" y="218"/>
      <point x="544" y="257"/>
      <point x="544" y="300" type="curve" smooth="yes"/>
      <point x="544" y="342"/>
      <point x="532" y="382"/>
      <point x="513" y="416" type="curve"/>
      <point x="559" y="461" type="line" smooth="yes"/>
      <point x="568" y="471"/>
      <point x="568" y="487"/>
      <point x="559" y="497" type="curve" smooth="yes"/>
      <point x="505" y="551" type="line" smooth="yes"/>
      <point x="494" y="561"/>
      <point x="479" y="561"/>
      <point x="469" y="551" type="curve" smooth="yes"/>
      <point x="424" y="505" type="line"/>
      <point x="389" y="525"/>
      <point x="350" y="537"/>
      <point x="308" y="537" type="curve" smooth="yes"/>
      <point x="265" y="537"/>
      <point x="225" y="525"/>
      <point x="192" y="505" type="curve"/>
      <point x="146" y="551" type="line" smooth="yes"/>
      <point x="137" y="561"/>
      <point x="121" y="561"/>
      <point x="111" y="551" type="curve" smooth="yes"/>
      <point x="57" y="497" type="line" smooth="yes"/>
      <point x="47" y="487"/>
      <point x="47" y="471"/>
      <point x="57" y="461" type="curve" smooth="yes"/>
      <point x="102" y="416" type="line"/>
      <point x="82" y="382"/>
      <point x="71" y="342"/>
      <point x="71" y="300" type="curve" smooth="yes"/>
      <point x="71" y="257"/>
      <point x="82" y="218"/>
      <point x="102" y="184" type="curve"/>
      <point x="57" y="139" type="line" smooth="yes"/>
      <point x="47" y="129"/>
      <point x="47" y="113"/>
      <point x="57" y="103" type="curve" smooth="yes"/>
      <point x="111" y="49" type="line" smooth="yes"/>
    </contour>
    <contour>
      <point x="247" y="190"/>
      <point x="198" y="239"/>
      <point x="198" y="300" type="curve" smooth="yes"/>
      <point x="198" y="361"/>
      <point x="247" y="410"/>
      <point x="308" y="410" type="curve" smooth="yes"/>
      <point x="369" y="410"/>
      <point x="418" y="361"/>
      <point x="418" y="300" type="curve" smooth="yes"/>
      <point x="418" y="239"/>
      <point x="369" y="190"/>
      <point x="308" y="190" type="curve" smooth="yes"/>
    </contour>
  </outline>
</glyph>
<glyph name="logicalnot" format="1">
  <advance width="570"/>
  <unicode hex="00AC"/>
  <outline>
    <contour>
      <point x="483" y="92" type="line" smooth="yes"/>
      <point x="498" y="92"/>
      <point x="509" y="103"/>
      <point x="509" y="117" type="curve" smooth="yes"/>
      <point x="509" y="325" type="line" smooth="yes"/>
      <point x="509" y="339"/>
      <point x="498" y="350"/>
      <point x="483" y="350" type="curve" smooth="yes"/>
      <point x="78" y="350" type="line" smooth="yes"/>
      <point x="64" y="350"/>
      <point x="53" y="339"/>
      <point x="53" y="325" type="curve" smooth="yes"/>
      <point x="53" y="243" type="line" smooth="yes"/>
      <point x="53" y="228"/>
      <point x="64" y="217"/>
      <point x="78" y="217" type="curve" smooth="yes"/>
      <point x="375" y="217" type="line"/>
      <point x="375" y="117" type="line" smooth="yes"/>
      <point x="375" y="103"/>
      <point x="386" y="92"/>
      <point x="400" y="92" type="curve" smooth="yes"/>
    </contour>
  </outline>
</glyph>
<glyph name="periodcentered" format="1">
  <advance width="330"/>
  <unicode hex="00B7"/>
  <outline>
    <contour>
      <point x="234" y="207"/>
      <point x="291" y="264"/>
      <point x="291" y="333" type="curve" smooth="yes"/>
      <point x="291" y="403"/>
      <point x="234" y="460"/>
      <point x="165" y="460" type="curve" smooth="yes"/>
      <point x="95" y="460"/>
      <point x="38" y="403"/>
      <point x="38" y="333" type="curve" smooth="yes"/>
      <point x="38" y="264"/>
      <point x="95" y="207"/>
      <point x="165" y="207" type="curve" smooth="yes"/>
    </contour>
  </outline>
</glyph>
<glyph name="divide" format="1">
  <advance width="533"/>
  <unicode hex="00F7"/>
  <outline>
    <contour>
      <point x="464" y="234" type="line" smooth="yes"/>
      <point x="479" y="234"/>
      <point x="490" y="245"/>
      <point x="490" y="259" type="curve" smooth="yes"/>
      <point x="490" y="341" type="line" smooth="yes"/>
      <point x="490" y="356"/>
      <point x="479" y="367"/>
      <point x="464" y="367" type="curve" smooth="yes"/>
      <point x="69" y="367" type="line" smooth="yes"/>
      <point x="55" y="367"/>
      <point x="44" y="356"/>
      <point x="44" y="341" type="curve" smooth="yes"/>
      <point x="44" y="259" type="line" smooth="yes"/>
      <point x="44" y="245"/>
      <point x="55" y="234"/>
      <point x="69" y="234" type="curve" smooth="yes"/>
    </contour>
    <contour>
      <point x="315" y="43" type="line" smooth="yes"/>
      <point x="329" y="43"/>
      <point x="341" y="54"/>
      <point x="341" y="68" type="curve" smooth="yes"/>
      <point x="341" y="160" type="line" smooth="yes"/>
      <point x="341" y="174"/>
      <point x="329" y="186"/>
      <point x="315" y="186" type="curve" smooth="yes"/>
      <point x="216" y="186" type="line" smooth="yes"/>
      <point x="202" y="186"/>
      <point x="191" y="174"/>
      <point x="191" y="160" type="curve" smooth="yes"/>
      <point x="191" y="68" type="line" smooth="yes"/>
      <point x="191" y="54"/>
      <point x="202" y="43"/>
      <point x="216" y="43" type="curve" smooth="yes"/>
    </contour>
    <contour>
      <point x="315" y="415" type="line" smooth="yes"/>
      <point x="329" y="415"/>
      <point x="341" y="426"/>
      <point x="341" y="441" type="curve" smooth="yes"/>
      <point x="341" y="533" type="line" smooth="yes"/>
      <point x="341" y="547"/>
      <point x="329" y="558"/>
      <point x="315" y="558" type="curve" smooth="yes"/>
      <point x="216" y="558" type="line" smooth="yes"/>
      <point x="202" y="558"/>
      <point x="191" y="547"/>
      <point x="191" y="533" type="curve" smooth="yes"/>
      <point x="191" y="441" type="line" smooth="yes"/>
      <point x="191" y="426"/>
      <point x="202" y="415"/>
      <point x="216" y="415" type="curve" smooth="yes"/>
    </contour>
  </outline>
</glyph>
<glyph name="Eogonek" format="1">
  <advance width="642"/>
  <unicode hex="0118"/>
  <outline>
    <contour>
      <point x="574" y="-220" type="line" smooth="yes"/>
      <point x="588" y="-220"/>
      <point x="599" y="-209"/>
      <point x="599" y="-195" type="curve" smooth="yes"/>
      <point x="599" y="-145" type="line" smooth="yes"/>
      <point x="599" y="-131"/>
      <point x="588" y="-120"/>
      <point x="574" y="-120" type="curve" smooth="yes"/>
      <point x="562" y="-120" type="line" smooth="yes"/>
      <point x="521" y="-120"/>
      <point x="503" y="-91"/>
      <point x="503" y="-60" type="curve" smooth="yes"/>
      <point x="503" y="-30"/>
      <point x="520" y="-1"/>
      <point x="560" y="0" type="curve" smooth="yes"/>
      <point x="573" y="0" type="line" smooth="yes"/>
      <point x="588" y="0"/>
      <point x="599" y="11"/>
      <point x="599" y="25" type="curve" smooth="yes"/>
      <point x="599" y="124" type="line" smooth="yes"/>
      <point x="599" y="139"/>
      <point x="588" y="150"/>
      <point x="573" y="150" type="curve" smooth="yes"/>
      <point x="249" y="150" type="line"/>
      <point x="249" y="280" type="line"/>
      <point x="543" y="280" type="line" smooth="yes"/>
      <point x="558" y="280"/>
      <point x="569" y="291"/>
      <point x="569" y="306" type="curve" smooth="yes"/>
      <point x="569" y="397" type="line" smooth="yes"/>
      <point x="569" y="412"/>
      <point x="558" y="423"/>
      <point x="543" y="423" type="curve" smooth="yes"/>
      <point x="249" y="423" type="line"/>
      <point x="249" y="550" type="line"/>
      <point x="565" y="550" type="line" smooth="yes"/>
      <point x="580" y="550"/>
      <point x="591" y="561"/>
      <point x="591" y="575" type="curve" smooth="yes"/>
      <point x="591" y="674" type="line" smooth="yes"/>
      <point x="591" y="689"/>
      <point x="580" y="700"/>
      <point x="565" y="700" type="curve" smooth="yes"/>
      <point x="93" y="700" type="line" smooth="yes"/>
      <point x="79" y="700"/>
      <point x="68" y="689"/>
      <point x="68" y="674" type="curve" smooth="yes"/>
      <point x="68" y="25" type="line" smooth="yes"/>
      <point x="68" y="11"/>
      <point x="79" y="0"/>
      <point x="93" y="0" type="curve" smooth="yes"/>
      <point x="410" y="0" type="line"/>
      <point x="403" y="-18"/>
      <point x="399" y="-37"/>
      <point x="399" y="-60" type="curve" smooth="yes"/>
      <point x="399" y="-152"/>
      <point x="450" y="-220"/>
      <point x="558" y="-220" type="curve" smooth="yes"/>
    </contour>
  </outline>
</glyph>
<glyph name="idotless" format="1">
  <advance width="290"/>
  <unicode hex="0131"/>
  <outline>
    <contour>
      <point x="207" y="0" type="line"/>
      <point x="222" y="0"/>
      <point x="233" y="11"/>
      <point x="233" y="25" type="curve" smooth="yes"/>
      <point x="233" y="495" type="line" smooth="yes"/>
      <point x="233" y="509"/>
      <point x="222" y="520"/>
      <point x="207" y="520" type="curve" smooth="yes"/>
      <point x="82" y="520" type="line" smooth="yes"/>
      <point x="68" y="520"/>
      <point x="57" y="509"/>
      <point x="57" y="495" type="curve" smooth="yes"/>
      <point x="57" y="25" type="line" smooth="yes"/>
      <point x="57" y="11"/>
      <point x="68" y="0"/>
      <point x="82" y="0" type="curve" smooth="yes"/>
    </contour>
  </outline>
</glyph>
<glyph name="Lslash" format="1">
  <advance width="608"/>
  <unicode hex="0141"/>
  <outline>
    <contour>
      <point x="567" y="0" type="line" smooth="yes"/>
      <point x="581" y="0"/>
      <point x="592" y="11"/>
      <point x="592" y="25" type="curve" smooth="yes"/>
      <point x="592" y="131" type="line" smooth="yes"/>
      <point x="592" y="146"/>
      <point x="581" y="157"/>
      <point x="567" y="157" type="curve" smooth="yes"/>
      <point x="267" y="157" type="line"/>
      <point x="267" y="322" type="line"/>
      <point x="422" y="383" type="line" smooth="yes"/>
      <point x="438" y="389"/>
      <point x="444" y="396"/>
      <point x="444" y="413" type="curve" smooth="yes"/>
      <point x="444" y="492" type="line" smooth="yes"/>
      <point x="444" y="504"/>
      <point x="435" y="512"/>
      <point x="423" y="512" type="curve" smooth="yes"/>
      <point x="421" y="512"/>
      <point x="417" y="511"/>
      <point x="412" y="509" type="curve" smooth="yes"/>
      <point x="267" y="452" type="line"/>
      <point x="267" y="675" type="line" smooth="yes"/>
      <point x="267" y="689"/>
      <point x="256" y="700"/>
      <point x="241" y="700" type="curve" smooth="yes"/>
      <point x="102" y="700" type="line" smooth="yes"/>
      <point x="87" y="700"/>
      <point x="76" y="689"/>
      <point x="76" y="675" type="curve" smooth="yes"/>
      <point x="76" y="377" type="line"/>
      <point x="35" y="361" type="line" smooth="yes"/>
      <point x="19" y="355"/>
      <point x="13" y="348"/>
      <point x="13" y="331" type="curve" smooth="yes"/>
      <point x="13" y="252" type="line" smooth="yes"/>
      <point x="13" y="240"/>
      <point x="22" y="232"/>
      <point x="33" y="232" type="curve" smooth="yes"/>
      <point x="36" y="232"/>
      <point x="40" y="233"/>
      <point x="45" y="235" type="curve" smooth="yes"/>
      <point x="76" y="247" type="line"/>
      <point x="76" y="25" type="line" smooth="yes"/>
      <point x="76" y="11"/>
      <point x="87" y="0"/>
      <point x="102" y="0" type="curve" smooth="yes"/>
    </contour>
  </outline>
</glyph>
<glyph name="Tbar" format="1">
  <advance width="644"/>
  <unicode hex="0166"/>
  <outline>
    <contour>
      <point x="392" y="0" type="line" smooth="yes"/>
      <point x="406" y="0"/>
      <point x="417" y="11"/>
      <point x="417" y="25" type="curve" smooth="yes"/>
      <point x="417" y="289" type="line"/>
      <point x="516" y="289" type="line" smooth="yes"/>
      <point x="531" y="289"/>
      <point x="542" y="300"/>
      <point x="542" y="314" type="curve" smooth="yes"/>
      <point x="542" y="366" type="line" smooth="yes"/>
      <point x="542" y="381"/>
      <point x="531" y="392"/>
      <point x="516" y="392" type="curve" smooth="yes"/>
      <point x="417" y="392" type="line"/>
      <point x="417" y="537" type="line"/>
      <point x="594" y="537" type="line" smooth="yes"/>
      <point x="608" y="537"/>
      <point x="619" y="548"/>
      <point x="619" y="562" type="curve" smooth="yes"/>
      <point x="619" y="674" type="line" smooth="yes"/>
      <point x="619" y="689"/>
      <point x="608" y="700"/>
      <point x="594" y="700" type="curve" smooth="yes"/>
      <point x="50" y="700" type="line" smooth="yes"/>
      <point x="36" y="700"/>
      <point x="25" y="689"/>
      <point x="25" y="674" type="curve" smooth="yes"/>
      <point x="25" y="562" type="line" smooth="yes"/>
      <point x="25" y="548"/>
      <point x="36" y="537"/>
      <point x="50" y="537" type="curve" smooth="yes"/>
      <point x="227" y="537" type="line"/>
      <point x="227" y="392" type="line"/>
      <point x="128" y="392" type="line" smooth="yes"/>
      <point x="113" y="392"/>
      <point x="102" y="381"/>
      <point x="102" y="366" type="curve" smooth="yes"/>
      <point x="102" y="314" type="line" smooth="yes"/>
      <point x="102" y="300"/>
      <point x="113" y="289"/>
      <point x="128" y="289" type="curve" smooth="yes"/>
      <point x="227" y="289" type="line"/>
      <point x="227" y="25" type="line" smooth="yes"/>
      <point x="227" y="11"/>
      <point x="238" y="0"/>
      <point x="252" y="0" type="curve" smooth="yes"/>
    </contour>
  </outline>
</glyph>
<glyph name="Uogonek" format="1">
  <advance width="728"/>
  <unicode hex="0172"/>
  <outline>
    <contour>
      <point x="457" y="-220" type="line"/>
      <point x="471" y="-220"/>
      <point x="482" y="-209"/>
      <point x="482" y="-195" type="curve"/>
      <point x="482" y="-145" type="line"/>
      <point x="482" y="-131"/>
      <point x="471" y="-120"/>
      <point x="457" y="-120" type="curve"/>
      <point x="445" y="-120" type="line"/>
      <point x="404" y="-120"/>
      <point x="386" y="-91"/>
      <point x="386" y="-60" type="curve" smooth="yes"/>
      <point x="386" y="-30"/>
      <point x="400" y="-12"/>
      <point x="436" y="-5" type="curve" smooth="yes"/>
      <point x="575" y="19"/>
      <point x="666" y="102"/>
      <point x="666" y="266" type="curve"/>
      <point x="666" y="674" type="line"/>
      <point x="666" y="689"/>
      <point x="655" y="700"/>
      <point x="640" y="700" type="curve"/>
      <point x="504" y="700" type="line"/>
      <point x="489" y="700"/>
      <point x="478" y="689"/>
      <point x="478" y="674" type="curve"/>
      <point x="478" y="268" type="line"/>
      <point x="478" y="185"/>
      <point x="436" y="144"/>
      <point x="364" y="144" type="curve" smooth="yes"/>
      <point x="291" y="144"/>
      <point x="250" y="185"/>
      <point x="250" y="268" type="curve"/>
      <point x="250" y="674" type="line"/>
      <point x="250" y="689"/>
      <point x="239" y="700"/>
      <point x="224" y="700" type="curve"/>
      <point x="87" y="700" type="line"/>
      <point x="73" y="700"/>
      <point x="62" y="689"/>
      <point x="62" y="674" type="curve"/>
      <point x="62" y="266" type="line"/>
      <point x="62" y="102"/>
      <point x="150" y="16"/>
      <point x="290" y="-4" type="curve"/>
      <point x="285" y="-20"/>
      <point x="282" y="-38"/>
      <point x="282" y="-60" type="curve" smooth="yes"/>
      <point x="282" y="-152"/>
      <point x="333" y="-220"/>
      <point x="441" y="-220" type="curve"/>
    </contour>
  </outline>
</glyph>
<glyph name="circumflex" format="1">
  <advance width="489"/>
  <unicode hex="02C6"/>
  <outline>
    <contour>
      <point x="122" y="595" type="line" smooth="yes"/>
      <point x="133" y="595"/>
      <point x="146" y="596"/>
      <point x="157" y="602" type="curve" smooth="yes"/>
      <point x="245" y="650" type="line"/>
      <point x="333" y="602" type="line" smooth="yes"/>
      <point x="344" y="596"/>
      <point x="357" y="595"/>
      <point x="368" y="595" type="curve" smooth="yes"/>
      <point x="418" y="595" type="line" smooth="yes"/>
      <point x="428" y="595"/>
      <point x="433" y="600"/>
      <point x="433" y="609" type="curve" smooth="yes"/>
      <point x="433" y="615"/>
      <point x="430" y="620"/>
      <point x="426" y="625" type="curve" smooth="yes"/>
      <point x="322" y="734" type="line" smooth="yes"/>
      <point x="309" y="748"/>
      <point x="300" y="752"/>
      <point x="287" y="752" type="curve" smooth="yes"/>
      <point x="203" y="752" type="line" smooth="yes"/>
      <point x="190" y="752"/>
      <point x="181" y="748"/>
      <point x="168" y="734" type="curve" smooth="yes"/>
      <point x="64" y="625" type="line" smooth="yes"/>
      <point x="60" y="620"/>
      <point x="57" y="615"/>
      <point x="57" y="609" type="curve" smooth="yes"/>
      <point x="57" y="600"/>
      <point x="62" y="595"/>
      <point x="72" y="595" type="curve" smooth="yes"/>
    </contour>
  </outline>
</glyph>
<glyph name="breve" format="1">
  <advance width="420"/>
  <unicode hex="02D8"/>
  <outline>
    <contour>
      <point x="312" y="590"/>
      <point x="361" y="654"/>
      <point x="361" y="733" type="curve" smooth="yes"/>
      <point x="361" y="743"/>
      <point x="354" y="752"/>
      <point x="342" y="752" type="curve" smooth="yes"/>
      <point x="274" y="752" type="line" smooth="yes"/>
      <point x="262" y="752"/>
      <point x="255" y="743"/>
      <point x="255" y="733" type="curve" smooth="yes"/>
      <point x="255" y="702"/>
      <point x="245" y="674"/>
      <point x="209" y="674" type="curve" smooth="yes"/>
      <point x="174" y="674"/>
      <point x="164" y="702"/>
      <point x="164" y="733" type="curve" smooth="yes"/>
      <point x="164" y="743"/>
      <point x="157" y="752"/>
      <point x="145" y="752" type="curve" smooth="yes"/>
      <point x="77" y="752" type="line" smooth="yes"/>
      <point x="65" y="752"/>
      <point x="58" y="743"/>
      <point x="58" y="733" type="curve" smooth="yes"/>
      <point x="58" y="654"/>
      <point x="107" y="590"/>
      <point x="209" y="590" type="curve" smooth="yes"/>
    </contour>
  </outline>
</glyph>
<glyph name="tilde" format="1">
  <advance width="464"/>
  <unicode hex="02DC"/>
  <outline>
    <contour>
      <point x="379" y="590"/>
      <point x="408" y="675"/>
      <point x="408" y="719" type="curve" smooth="yes"/>
      <point x="408" y="728"/>
      <point x="401" y="737"/>
      <point x="390" y="737" type="curve" smooth="yes"/>
      <point x="327" y="737" type="line" smooth="yes"/>
      <point x="305" y="737"/>
      <point x="308" y="706"/>
      <point x="280" y="706" type="curve" smooth="yes"/>
      <point x="245" y="706"/>
      <point x="227" y="741"/>
      <point x="171" y="741" type="curve" smooth="yes"/>
      <point x="84" y="741"/>
      <point x="57" y="656"/>
      <point x="57" y="612" type="curve" smooth="yes"/>
      <point x="57" y="603"/>
      <point x="65" y="595"/>
      <point x="75" y="595" type="curve" smooth="yes"/>
      <point x="138" y="595" type="line" smooth="yes"/>
      <point x="159" y="595"/>
      <point x="156" y="625"/>
      <point x="185" y="625" type="curve" smooth="yes"/>
      <point x="220" y="625"/>
      <point x="238" y="590"/>
      <point x="293" y="590" type="curve" smooth="yes"/>
    </contour>
  </outline>
</glyph>
<glyph name="hungarumlaut" format="1">
  <advance width="553"/>
  <unicode hex="02DD"/>
  <outline>
    <contour>
      <point x="357" y="595" type="line" smooth="yes"/>
      <point x="370" y="595"/>
      <point x="382" y="600"/>
      <point x="390" y="609" type="curve" smooth="yes"/>
      <point x="490" y="720" type="line" smooth="yes"/>
      <point x="493" y="723"/>
      <point x="496" y="728"/>
      <point x="496" y="733" type="curve" smooth="yes"/>
      <point x="496" y="745"/>
      <point x="488" y="752"/>
      <point x="476" y="752" type="curve" smooth="yes"/>
      <point x="366" y="752" type="line" smooth="yes"/>
      <point x="345" y="752"/>
      <point x="335" y="746"/>
      <point x="329" y="733" type="curve" smooth="yes"/>
      <point x="281" y="626" type="line" smooth="yes"/>
      <point x="279" y="622"/>
      <point x="276" y="616"/>
      <point x="276" y="611" type="curve" smooth="yes"/>
      <point x="276" y="601"/>
      <point x="282" y="595"/>
      <point x="292" y="595" type="curve" smooth="yes"/>
    </contour>
    <contour>
      <point x="139" y="595" type="line" smooth="yes"/>
      <point x="152" y="595"/>
      <point x="164" y="600"/>
      <point x="172" y="609" type="curve" smooth="yes"/>
      <point x="272" y="720" type="line" smooth="yes"/>
      <point x="275" y="723"/>
      <point x="278" y="728"/>
      <point x="278" y="733" type="curve" smooth="yes"/>
      <point x="278" y="745"/>
      <point x="270" y="752"/>
      <point x="258" y="752" type="curve" smooth="yes"/>
      <point x="148" y="752" type="line" smooth="yes"/>
      <point x="127" y="752"/>
      <point x="117" y="746"/>
      <point x="111" y="733" type="curve" smooth="yes"/>
      <point x="63" y="626" type="line" smooth="yes"/>
      <point x="61" y="622"/>
      <point x="58" y="616"/>
      <point x="58" y="611" type="curve" smooth="yes"/>
      <point x="58" y="601"/>
      <point x="64" y="595"/>
      <point x="74" y="595" type="curve" smooth="yes"/>
    </contour>
  </outline>
</glyph>
<glyph name="Dzhe-cy" format="1">
  <advance width="700"/>
  <unicode hex="040F"/>
  <outline>
    <contour>
      <point x="401" y="-119" type="line" smooth="yes"/>
      <point x="416" y="-119"/>
      <point x="427" y="-108"/>
      <point x="427" y="-93" type="curve" smooth="yes"/>
      <point x="427" y="0" type="line"/>
      <point x="606" y="0" type="line" smooth="yes"/>
      <point x="621" y="0"/>
      <point x="632" y="11"/>
      <point x="632" y="25" type="curve" smooth="yes"/>
      <point x="632" y="675" type="line" smooth="yes"/>
      <point x="632" y="689"/>
      <point x="621" y="700"/>
      <point x="606" y="700" type="curve" smooth="yes"/>
      <point x="471" y="700" type="line" smooth="yes"/>
      <point x="457" y="700"/>
      <point x="446" y="689"/>
      <point x="446" y="675" type="curve" smooth="yes"/>
      <point x="446" y="167" type="line"/>
      <point x="256" y="167" type="line"/>
      <point x="256" y="675" type="line" smooth="yes"/>
      <point x="256" y="689"/>
      <point x="245" y="700"/>
      <point x="230" y="700" type="curve" smooth="yes"/>
      <point x="93" y="700" type="line" smooth="yes"/>
      <point x="79" y="700"/>
      <point x="68" y="690"/>
      <point x="68" y="675" type="curve" smooth="yes"/>
      <point x="68" y="25" type="line" smooth="yes"/>
      <point x="68" y="11"/>
      <point x="79" y="0"/>
      <point x="93" y="0" type="curve" smooth="yes"/>
      <point x="272" y="0" type="line"/>
      <point x="272" y="-93" type="line" smooth="yes"/>
      <point x="272" y="-108"/>
      <point x="283" y="-119"/>
      <point x="297" y="-119" type="curve" smooth="yes"/>
    </contour>
  </outline>
</glyph>
<glyph name="Pe-cy" format="1">
  <advance width="748"/>
  <unicode hex="041F"/>
  <outline>
    <contour>
      <point x="230" y="0" type="line" smooth="yes"/>
      <point x="245" y="0"/>
      <point x="256" y="11"/>
      <point x="256" y="25" type="curve" smooth="yes"/>
      <point x="256" y="533" type="line"/>
      <point x="492" y="533" type="line"/>
      <point x="492" y="25" type="line" smooth="yes"/>
      <point x="492" y="11"/>
      <point x="503" y="0"/>
      <point x="518" y="0" type="curve" smooth="yes"/>
      <point x="654" y="0" type="line" smooth="yes"/>
      <point x="669" y="0"/>
      <point x="680" y="11"/>
      <point x="680" y="25" type="curve" smooth="yes"/>
      <point x="680" y="674" type="line" smooth="yes"/>
      <point x="680" y="689"/>
      <point x="669" y="700"/>
      <point x="654" y="700" type="curve" smooth="yes"/>
      <point x="93" y="700" type="line" smooth="yes"/>
      <point x="79" y="700"/>
      <point x="68" y="689"/>
      <point x="68" y="674" type="curve" smooth="yes"/>
      <point x="68" y="25" type="line" smooth="yes"/>
      <point x="68" y="10"/>
      <point x="79" y="0"/>
      <point x="93" y="0" type="curve" smooth="yes"/>
    </contour>
  </outline>
</glyph>
<glyph name="Ef-cy" format="1">
  <advance width="786"/>
  <unicode hex="0424"/>
  <outline>
    <contour>
      <point x="453" y="-20" type="line" smooth="yes"/>
      <point x="468" y="-20"/>
      <point x="479" y="-9"/>
      <point x="479" y="5" type="curve" smooth="yes"/>
      <point x="479" y="82" type="line"/>
      <point x="631" y="103"/>
      <point x="763" y="190"/>
      <point x="763" y="353" type="curve" smooth="yes"/>
      <point x="763" y="512"/>
      <point x="630" y="597"/>
      <point x="479" y="618" type="curve"/>
      <point x="479" y="695" type="line" smooth="yes"/>
      <point x="479" y="709"/>
      <point x="468" y="720"/>
      <point x="453" y="720" type="curve" smooth="yes"/>
      <point x="330" y="720" type="line" smooth="yes"/>
      <point x="316" y="720"/>
      <point x="305" y="709"/>
      <point x="305" y="695" type="curve" smooth="yes"/>
      <point x="305" y="618" type="line"/>
      <point x="157" y="597"/>
      <point x="24" y="512"/>
      <point x="24" y="353" type="curve" smooth="yes"/>
      <point x="24" y="197"/>
      <point x="153" y="105"/>
      <point x="305" y="82" type="curve"/>
      <point x="305" y="5" type="line" smooth="yes"/>
      <point x="305" y="-9"/>
      <point x="316" y="-20"/>
      <point x="330" y="-20" type="curve" smooth="yes"/>
    </contour>
    <contour>
      <point x="244" y="242"/>
      <point x="191" y="282"/>
      <point x="191" y="353" type="curve" smooth="yes"/>
      <point x="191" y="420"/>
      <point x="244" y="458"/>
      <point x="307" y="470" type="curve"/>
      <point x="307" y="230" type="line"/>
    </contour>
    <contour>
      <point x="475" y="470" type="line"/>
      <point x="537" y="459"/>
      <point x="591" y="420"/>
      <point x="591" y="353" type="curve" smooth="yes"/>
      <point x="591" y="282"/>
      <point x="537" y="242"/>
      <point x="475" y="230" type="curve"/>
    </contour>
  </outline>
</glyph>
<glyph name="Tse-cy" format="1">
  <advance width="755"/>
  <unicode hex="0426"/>
  <outline>
    <contour>
      <point x="696" y="-110" type="line" smooth="yes"/>
      <point x="711" y="-110"/>
      <point x="722" y="-99"/>
      <point x="722" y="-85" type="curve" smooth="yes"/>
      <point x="722" y="141" type="line" smooth="yes"/>
      <point x="722" y="156"/>
      <point x="711" y="167"/>
      <point x="696" y="167" type="curve" smooth="yes"/>
      <point x="640" y="167" type="line"/>
      <point x="640" y="675" type="line" smooth="yes"/>
      <point x="640" y="689"/>
      <point x="629" y="700"/>
      <point x="614" y="700" type="curve" smooth="yes"/>
      <point x="478" y="700" type="line" smooth="yes"/>
      <point x="463" y="700"/>
      <point x="452" y="689"/>
      <point x="452" y="675" type="curve" smooth="yes"/>
      <point x="452" y="167" type="line"/>
      <point x="256" y="167" type="line"/>
      <point x="256" y="675" type="line" smooth="yes"/>
      <point x="256" y="689"/>
      <point x="245" y="700"/>
      <point x="230" y="700" type="curve" smooth="yes"/>
      <point x="93" y="700" type="line" smooth="yes"/>
      <point x="79" y="700"/>
      <point x="68" y="690"/>
      <point x="68" y="675" type="curve" smooth="yes"/>
      <point x="68" y="26" type="line" smooth="yes"/>
      <point x="68" y="11"/>
      <point x="79" y="0"/>
      <point x="93" y="0" type="curve" smooth="yes"/>
      <point x="564" y="0" type="line"/>
      <point x="564" y="-85" type="line" smooth="yes"/>
      <point x="564" y="-99"/>
      <point x="575" y="-110"/>
      <point x="589" y="-110" type="curve" smooth="yes"/>
    </contour>
  </outline>
</glyph>
<glyph name="Sha-cy" format="1">
  <advance width="930"/>
  <unicode hex="0428"/>
  <outline>
    <contour>
      <point x="837" y="0" type="line" smooth="yes"/>
      <point x="851" y="0"/>
      <point x="862" y="11"/>
      <point x="862" y="25" type="curve" smooth="yes"/>
      <point x="862" y="675" type="line" smooth="yes"/>
      <point x="862" y="689"/>
      <point x="851" y="700"/>
      <point x="837" y="700" type="curve" smooth="yes"/>
      <point x="707" y="700" type="line" smooth="yes"/>
      <point x="692" y="700"/>
      <point x="681" y="689"/>
      <point x="681" y="675" type="curve" smooth="yes"/>
      <point x="681" y="167" type="line"/>
      <point x="549" y="167" type="line"/>
      <point x="549" y="675" type="line" smooth="yes"/>
      <point x="549" y="689"/>
      <point x="538" y="700"/>
      <point x="524" y="700" type="curve" smooth="yes"/>
      <point x="407" y="700" type="line" smooth="yes"/>
      <point x="393" y="700"/>
      <point x="382" y="689"/>
      <point x="382" y="675" type="curve" smooth="yes"/>
      <point x="382" y="167" type="line"/>
      <point x="249" y="167" type="line"/>
      <point x="249" y="675" type="line" smooth="yes"/>
      <point x="249" y="689"/>
      <point x="238" y="700"/>
      <point x="223" y="700" type="curve" smooth="yes"/>
      <point x="93" y="700" type="line" smooth="yes"/>
      <point x="79" y="700"/>
      <point x="68" y="690"/>
      <point x="68" y="675" type="curve" smooth="yes"/>
      <point x="68" y="25" type="line" smooth="yes"/>
      <point x="68" y="11"/>
      <point x="79" y="0"/>
      <point x="93" y="0" type="curve" smooth="yes"/>
    </contour>
  </outline>
</glyph>
<glyph name="Softsign-cy" format="1">
  <advance width="679"/>
  <unicode hex="042C"/>
  <outline>
    <contour>
      <point x="380" y="0" type="line" smooth="yes"/>
      <point x="553" y="0"/>
      <point x="654" y="91"/>
      <point x="654" y="231" type="curve" smooth="yes"/>
      <point x="654" y="382"/>
      <point x="549" y="456"/>
      <point x="380" y="456" type="curve" smooth="yes"/>
      <point x="262" y="456" type="line"/>
      <point x="262" y="675" type="line" smooth="yes"/>
      <point x="262" y="689"/>
      <point x="251" y="700"/>
      <point x="237" y="700" type="curve" smooth="yes"/>
      <point x="93" y="700" type="line" smooth="yes"/>
      <point x="79" y="700"/>
      <point x="68" y="689"/>
      <point x="68" y="675" type="curve" smooth="yes"/>
      <point x="68" y="25" type="line" smooth="yes"/>
      <point x="68" y="11"/>
      <point x="79" y="0"/>
      <point x="93" y="0" type="curve"/>
    </contour>
    <contour>
      <point x="259" y="312" type="line"/>
      <point x="377" y="312" type="line" smooth="yes"/>
      <point x="426" y="312"/>
      <point x="460" y="284"/>
      <point x="460" y="231" type="curve" smooth="yes"/>
      <point x="460" y="188"/>
      <point x="434" y="144"/>
      <point x="377" y="144" type="curve" smooth="yes"/>
      <point x="259" y="144" type="line"/>
    </contour>
  </outline>
</glyph>
<glyph name="zhe-cy" format="1">
  <advance width="777"/>
  <unicode hex="0436"/>
  <outline>
    <contour>
      <point x="169" y="0" type="line" smooth="yes"/>
      <point x="187" y="0"/>
      <point x="195" y="12"/>
      <point x="198" y="16" type="curve" smooth="yes"/>
      <point x="308" y="205" type="line"/>
      <point x="308" y="25" type="line" smooth="yes"/>
      <point x="308" y="11"/>
      <point x="319" y="0"/>
      <point x="334" y="0" type="curve" smooth="yes"/>
      <point x="443" y="0" type="line" smooth="yes"/>
      <point x="457" y="0"/>
      <point x="468" y="11"/>
      <point x="468" y="25" type="curve" smooth="yes"/>
      <point x="468" y="206" type="line"/>
      <point x="579" y="16" type="line" smooth="yes"/>
      <point x="582" y="12"/>
      <point x="590" y="0"/>
      <point x="608" y="0" type="curve" smooth="yes"/>
      <point x="734" y="0" type="line" smooth="yes"/>
      <point x="747" y="0"/>
      <point x="757" y="10"/>
      <point x="757" y="23" type="curve" smooth="yes"/>
      <point x="757" y="28"/>
      <point x="755" y="33"/>
      <point x="752" y="38" type="curve" smooth="yes"/>
      <point x="605" y="279" type="line"/>
      <point x="732" y="481" type="line" smooth="yes"/>
      <point x="736" y="486"/>
      <point x="738" y="492"/>
      <point x="738" y="497" type="curve" smooth="yes"/>
      <point x="738" y="510"/>
      <point x="728" y="520"/>
      <point x="715" y="520" type="curve" smooth="yes"/>
      <point x="594" y="520" type="line" smooth="yes"/>
      <point x="577" y="520"/>
      <point x="570" y="509"/>
      <point x="566" y="504" type="curve" smooth="yes"/>
      <point x="468" y="335" type="line"/>
      <point x="468" y="495" type="line" smooth="yes"/>
      <point x="468" y="509"/>
      <point x="457" y="520"/>
      <point x="443" y="520" type="curve" smooth="yes"/>
      <point x="334" y="520" type="line" smooth="yes"/>
      <point x="319" y="520"/>
      <point x="308" y="509"/>
      <point x="308" y="495" type="curve" smooth="yes"/>
      <point x="308" y="334" type="line"/>
      <point x="210" y="504" type="line" smooth="yes"/>
      <point x="206" y="509"/>
      <point x="198" y="520"/>
      <point x="182" y="520" type="curve" smooth="yes"/>
      <point x="60" y="520" type="line" smooth="yes"/>
      <point x="48" y="520"/>
      <point x="38" y="510"/>
      <point x="38" y="497" type="curve" smooth="yes"/>
      <point x="38" y="492"/>
      <point x="40" y="486"/>
      <point x="44" y="481" type="curve" smooth="yes"/>
      <point x="171" y="279" type="line"/>
      <point x="25" y="38" type="line" smooth="yes"/>
      <point x="22" y="33"/>
      <point x="20" y="28"/>
      <point x="20" y="23" type="curve" smooth="yes"/>
      <point x="20" y="10"/>
      <point x="30" y="0"/>
      <point x="43" y="0" type="curve" smooth="yes"/>
    </contour>
  </outline>
</glyph>
<glyph name="ka-cy" format="1">
  <advance width="592"/>
  <unicode hex="043A"/>
  <outline>
    <contour>
      <point x="205" y="0" type="line" smooth="yes"/>
      <point x="219" y="0"/>
      <point x="230" y="11"/>
      <point x="230" y="25" type="curve" smooth="yes"/>
      <point x="230" y="195" type="line"/>
      <point x="381" y="17" type="line" smooth="yes"/>
      <point x="388" y="11"/>
      <point x="396" y="0"/>
      <point x="416" y="0" type="curve" smooth="yes"/>
      <point x="562" y="0" type="line" smooth="yes"/>
      <point x="574" y="0"/>
      <point x="584" y="10"/>
      <point x="584" y="23" type="curve" smooth="yes"/>
      <point x="584" y="28"/>
      <point x="582" y="34"/>
      <point x="577" y="38" type="curve" smooth="yes"/>
      <point x="383" y="264" type="line"/>
      <point x="554" y="481" type="line" smooth="yes"/>
      <point x="559" y="485"/>
      <point x="562" y="492"/>
      <point x="562" y="497" type="curve" smooth="yes"/>
      <point x="562" y="510"/>
      <point x="552" y="520"/>
      <point x="539" y="520" type="curve" smooth="yes"/>
      <point x="406" y="520" type="line" smooth="yes"/>
      <point x="387" y="520"/>
      <point x="381" y="511"/>
      <point x="372" y="503" type="curve" smooth="yes"/>
      <point x="230" y="322" type="line"/>
      <point x="230" y="495" type="line" smooth="yes"/>
      <point x="230" y="509"/>
      <point x="219" y="520"/>
      <point x="205" y="520" type="curve" smooth="yes"/>
      <point x="82" y="520" type="line" smooth="yes"/>
      <point x="68" y="520"/>
      <point x="57" y="509"/>
      <point x="57" y="495" type="curve" smooth="yes"/>
      <point x="57" y="25" type="line" smooth="yes"/>
      <point x="57" y="11"/>
      <point x="68" y="0"/>
      <point x="82" y="0" type="curve" smooth="yes"/>
    </contour>
  </outline>
</glyph>
<glyph name="em-cy" format="1">
  <advance width="717"/>
  <unicode hex="043C"/>
  <outline>
    <contour>
      <point x="209" y="0" type="line" smooth="yes"/>
      <point x="220" y="0"/>
      <point x="229" y="9"/>
      <point x="229" y="21" type="curve" smooth="yes"/>
      <point x="229" y="251" type="line"/>
      <point x="307" y="107" type="line" smooth="yes"/>
      <point x="313" y="97"/>
      <point x="321" y="85"/>
      <point x="337" y="85" type="curve" smooth="yes"/>
      <point x="379" y="85" type="line" smooth="yes"/>
      <point x="395" y="85"/>
      <point x="402" y="97"/>
      <point x="408" y="107" type="curve" smooth="yes"/>
      <point x="487" y="251" type="line"/>
      <point x="487" y="21" type="line" smooth="yes"/>
      <point x="487" y="9"/>
      <point x="495" y="0"/>
      <point x="507" y="0" type="curve" smooth="yes"/>
      <point x="638" y="0" type="line" smooth="yes"/>
      <point x="651" y="0"/>
      <point x="660" y="9"/>
      <point x="660" y="21" type="curve" smooth="yes"/>
      <point x="660" y="500" type="line" smooth="yes"/>
      <point x="660" y="511"/>
      <point x="650" y="520"/>
      <point x="639" y="520" type="curve" smooth="yes"/>
      <point x="517" y="520" type="line" smooth="yes"/>
      <point x="500" y="520"/>
      <point x="492" y="508"/>
      <point x="488" y="502" type="curve" smooth="yes"/>
      <point x="358" y="266" type="line"/>
      <point x="228" y="502" type="line" smooth="yes"/>
      <point x="224" y="508"/>
      <point x="216" y="520"/>
      <point x="199" y="520" type="curve" smooth="yes"/>
      <point x="77" y="520" type="line" smooth="yes"/>
      <point x="66" y="520"/>
      <point x="57" y="511"/>
      <point x="57" y="500" type="curve" smooth="yes"/>
      <point x="57" y="21" type="line" smooth="yes"/>
      <point x="57" y="9"/>
      <point x="66" y="0"/>
      <point x="78" y="0" type="curve" smooth="yes"/>
    </contour>
  </outline>
</glyph>
<glyph name="u-cy" format="1">
  <advance width="601"/>
  <unicode hex="0443"/>
  <outline>
    <contour>
      <point x="160" y="-191" type="line" smooth="yes"/>
      <point x="279" y="-191"/>
      <point x="330" y="-107"/>
      <point x="387" y="27" type="curve" smooth="yes"/>
      <point x="583" y="486" type="line" smooth="yes"/>
      <point x="586" y="492"/>
      <point x="586" y="496"/>
      <point x="586" y="499" type="curve" smooth="yes"/>
      <point x="586" y="510"/>
      <point x="575" y="520"/>
      <point x="564" y="520" type="curve" smooth="yes"/>
      <point x="446" y="520" type="line" smooth="yes"/>
      <point x="429" y="520"/>
      <point x="420" y="510"/>
      <point x="416" y="499" type="curve" smooth="yes"/>
      <point x="303" y="215" type="line"/>
      <point x="191" y="499" type="line" smooth="yes"/>
      <point x="187" y="509"/>
      <point x="180" y="520"/>
      <point x="162" y="520" type="curve" smooth="yes"/>
      <point x="43" y="520" type="line" smooth="yes"/>
      <point x="31" y="520"/>
      <point x="21" y="510"/>
      <point x="20" y="497" type="curve" smooth="yes"/>
      <point x="20" y="494"/>
      <point x="21" y="491"/>
      <point x="23" y="486" type="curve" smooth="yes"/>
      <point x="217" y="33" type="line"/>
      <point x="191" y="-27"/>
      <point x="182" y="-55"/>
      <point x="140" y="-55" type="curve" smooth="yes"/>
      <point x="99" y="-55" type="line"/>
      <point x="84" y="-55"/>
      <point x="73" y="-66"/>
      <point x="73" y="-80" type="curve" smooth="yes"/>
      <point x="73" y="-165" type="line" smooth="yes"/>
      <point x="73" y="-180"/>
      <point x="84" y="-191"/>
      <point x="99" y="-191" type="curve" smooth="yes"/>
    </contour>
  </outline>
</glyph>
<glyph name="che-cy" format="1">
  <advance width="616"/>
  <unicode hex="0447"/>
  <outline>
    <contour>
      <point x="534" y="0" type="line" smooth="yes"/>
      <point x="548" y="0"/>
      <point x="559" y="11"/>
      <point x="559" y="25" type="curve" smooth="yes"/>
      <point x="559" y="495" type="line" smooth="yes"/>
      <point x="559" y="509"/>
      <point x="548" y="520"/>
      <point x="534" y="520" type="curve" smooth="yes"/>
      <point x="398" y="520" type="line" smooth="yes"/>
      <point x="384" y="520"/>
      <point x="373" y="509"/>
      <point x="373" y="495" type="curve" smooth="yes"/>
      <point x="373" y="296" type="line"/>
      <point x="289" y="296" type="line" smooth="yes"/>
      <point x="233" y="296"/>
      <point x="211" y="318"/>
      <point x="211" y="375" type="curve" smooth="yes"/>
      <point x="211" y="495" type="line" smooth="yes"/>
      <point x="211" y="509"/>
      <point x="200" y="520"/>
      <point x="186" y="520" type="curve" smooth="yes"/>
      <point x="56" y="520" type="line" smooth="yes"/>
      <point x="42" y="520"/>
      <point x="31" y="509"/>
      <point x="31" y="495" type="curve" smooth="yes"/>
      <point x="31" y="367" type="line" smooth="yes"/>
      <point x="31" y="207"/>
      <point x="125" y="144"/>
      <point x="281" y="144" type="curve" smooth="yes"/>
      <point x="373" y="144" type="line"/>
      <point x="373" y="25" type="line" smooth="yes"/>
      <point x="373" y="11"/>
      <point x="384" y="0"/>
      <point x="398" y="0" type="curve" smooth="yes"/>
    </contour>
  </outline>
</glyph>
<glyph name="yeru-cy" format="1">
  <advance width="842"/>
  <unicode hex="044B"/>
  <outline>
    <contour>
      <point x="315" y="0" type="line" smooth="yes"/>
      <point x="488" y="0"/>
      <point x="563" y="93"/>
      <point x="563" y="203" type="curve" smooth="yes"/>
      <point x="563" y="324"/>
      <point x="468" y="414"/>
      <point x="320" y="414" type="curve" smooth="yes"/>
      <point x="237" y="414" type="line"/>
      <point x="237" y="495" type="line" smooth="yes"/>
      <point x="237" y="509"/>
      <point x="226" y="520"/>
      <point x="212" y="520" type="curve" smooth="yes"/>
      <point x="82" y="520" type="line" smooth="yes"/>
      <point x="68" y="520"/>
      <point x="57" y="509"/>
      <point x="57" y="495" type="curve" smooth="yes"/>
      <point x="58" y="25" type="line" smooth="yes"/>
      <point x="58" y="11"/>
      <point x="69" y="0"/>
      <point x="83" y="0" type="curve" smooth="yes"/>
    </contour>
    <contour>
      <point x="234" y="278" type="line"/>
      <point x="318" y="278" type="line" smooth="yes"/>
      <point x="375" y="278"/>
      <point x="399" y="246"/>
      <point x="399" y="206" type="curve" smooth="yes"/>
      <point x="399" y="167"/>
      <point x="377" y="137"/>
      <point x="318" y="137" type="curve" smooth="yes"/>
      <point x="234" y="137" type="line"/>
    </contour>
    <contour>
      <point x="759" y="0" type="line" smooth="yes"/>
      <point x="774" y="0"/>
      <point x="785" y="11"/>
      <point x="785" y="25" type="curve" smooth="yes"/>
      <point x="785" y="495" type="line" smooth="yes"/>
      <point x="785" y="509"/>
      <point x="774" y="520"/>
      <point x="759" y="520" type="curve" smooth="yes"/>
      <point x="634" y="520" type="line" smooth="yes"/>
      <point x="620" y="520"/>
      <point x="609" y="509"/>
      <point x="609" y="495" type="curve" smooth="yes"/>
      <point x="609" y="25" type="line" smooth="yes"/>
      <point x="609" y="11"/>
      <point x="620" y="0"/>
      <point x="634" y="0" type="curve" smooth="yes"/>
    </contour>
  </outline>
</glyph>
<glyph name="ia-cy" format="1">
  <advance width="613"/>
  <unicode hex="044F"/>
  <outline>
    <contour>
      <point x="193" y="0" type="line" smooth="yes"/>
      <point x="210" y="0"/>
      <point x="220" y="12"/>
      <point x="223" y="16" type="curve" smooth="yes"/>
      <point x="292" y="135" type="line"/>
      <point x="376" y="135" type="line"/>
      <point x="376" y="25" type="line" smooth="yes"/>
      <point x="376" y="11"/>
      <point x="387" y="0"/>
      <point x="402" y="0" type="curve" smooth="yes"/>
      <point x="531" y="0" type="line" smooth="yes"/>
      <point x="546" y="0"/>
      <point x="557" y="11"/>
      <point x="557" y="25" type="curve" smooth="yes"/>
      <point x="557" y="495" type="line" smooth="yes"/>
      <point x="557" y="509"/>
      <point x="546" y="520"/>
      <point x="531" y="520" type="curve" smooth="yes"/>
      <point x="289" y="520" type="line" smooth="yes"/>
      <point x="133" y="520"/>
      <point x="50" y="440"/>
      <point x="50" y="326" type="curve" smooth="yes"/>
      <point x="50" y="267"/>
      <point x="77" y="219"/>
      <point x="124" y="189" type="curve"/>
      <point x="33" y="38" type="line" smooth="yes"/>
      <point x="30" y="33"/>
      <point x="28" y="28"/>
      <point x="28" y="23" type="curve" smooth="yes"/>
      <point x="28" y="10"/>
      <point x="38" y="0"/>
      <point x="51" y="0" type="curve" smooth="yes"/>
    </contour>
    <contour>
      <point x="241" y="271"/>
      <point x="218" y="292"/>
      <point x="218" y="326" type="curve" smooth="yes"/>
      <point x="218" y="361"/>
      <point x="237" y="383"/>
      <point x="290" y="383" type="curve" smooth="yes"/>
      <point x="380" y="383" type="line"/>
      <point x="380" y="271" type="line"/>
      <point x="290" y="271" type="line" smooth="yes"/>
    </contour>
  </outline>
</glyph>
<glyph name="nje-cy" format="1">
  <advance width="903"/>
  <unicode hex="045A"/>
  <outline>
    <contour>
      <point x="204" y="0" type="line" smooth="yes"/>
      <point x="218" y="0"/>
      <point x="229" y="11"/>
      <point x="229" y="25" type="curve" smooth="yes"/>
      <point x="229" y="196" type="line"/>
      <point x="377" y="196" type="line"/>
      <point x="377" y="25" type="line" smooth="yes"/>
      <point x="377" y="11"/>
      <point x="388" y="0"/>
      <point x="402" y="0" type="curve" smooth="yes"/>
      <point x="631" y="0" type="line" smooth="yes"/>
      <point x="803" y="0"/>
      <point x="878" y="93"/>
      <point x="878" y="203" type="curve" smooth="yes"/>
      <point x="878" y="324"/>
      <point x="783" y="414"/>
      <point x="636" y="414" type="curve" smooth="yes"/>
      <point x="553" y="414" type="line"/>
      <point x="553" y="495" type="line" smooth="yes"/>
      <point x="553" y="509"/>
      <point x="542" y="520"/>
      <point x="528" y="520" type="curve" smooth="yes"/>
      <point x="401" y="520" type="line" smooth="yes"/>
      <point x="387" y="520"/>
      <point x="376" y="509"/>
      <point x="376" y="495" type="curve" smooth="yes"/>
      <point x="376" y="332" type="line"/>
      <point x="229" y="332" type="line"/>
      <point x="229" y="495" type="line" smooth="yes"/>
      <point x="229" y="509"/>
      <point x="218" y="520"/>
      <point x="204" y="520" type="curve" smooth="yes"/>
      <point x="82" y="520" type="line" smooth="yes"/>
      <point x="68" y="520"/>
      <point x="57" y="509"/>
      <point x="57" y="495" type="curve" smooth="yes"/>
      <point x="57" y="25" type="line" smooth="yes"/>
      <point x="57" y="11"/>
      <point x="68" y="0"/>
      <point x="82" y="0" type="curve" smooth="yes"/>
    </contour>
    <contour>
      <point x="550" y="278" type="line"/>
      <point x="634" y="278" type="line" smooth="yes"/>
      <point x="691" y="278"/>
      <point x="715" y="246"/>
      <point x="715" y="206" type="curve" smooth="yes"/>
      <point x="715" y="167"/>
      <point x="693" y="137"/>
      <point x="634" y="137" type="curve" smooth="yes"/>
      <point x="550" y="137" type="line"/>
    </contour>
  </outline>
</glyph>
<glyph name="gheupturn-cy" format="1">
  <advance width="515"/>
  <unicode hex="0491"/>
  <outline>
    <contour>
      <point x="205" y="0" type="line" smooth="yes"/>
      <point x="219" y="0"/>
      <point x="230" y="11"/>
      <point x="230" y="25" type="curve" smooth="yes"/>
      <point x="230" y="384" type="line"/>
      <point x="477" y="384" type="line" smooth="yes"/>
      <point x="491" y="384"/>
      <point x="502" y="395"/>
      <point x="502" y="409" type="curve" smooth="yes"/>
      <point x="502" y="605" type="line" smooth="yes"/>
      <point x="502" y="619"/>
      <point x="491" y="630"/>
      <point x="477" y="630" type="curve" smooth="yes"/>
      <point x="378" y="630" type="line" smooth="yes"/>
      <point x="364" y="630"/>
      <point x="353" y="619"/>
      <point x="353" y="605" type="curve" smooth="yes"/>
      <point x="353" y="520" type="line"/>
      <point x="82" y="520" type="line"/>
      <point x="68" y="520"/>
      <point x="57" y="509"/>
      <point x="57" y="495" type="curve" smooth="yes"/>
      <point x="57" y="25" type="line" smooth="yes"/>
      <point x="57" y="11"/>
      <point x="68" y="0"/>
      <point x="82" y="0" type="curve" smooth="yes"/>
    </contour>
  </outline>
</glyph>
<glyph name="hatafsegol-hb" format="1">
  <advance width="400"/>
  <unicode hex="05B1"/>
  <outline>
    <component base="sheva-hb" xOffset="113"/>
    <component base="segol-hb" xOffset="-65"/>
    <contour>
      <point x="5" y="0" type="move" name="_bottom"/>
    </contour>
  </outline>
</glyph>
<glyph name="pe-hb" format="1">
  <advance width="581"/>
  <unicode hex="05E4"/>
  <outline>
    <contour>
      <point x="77" y="428"/>
      <point x="64" y="441"/>
      <point x="66" y="454" type="curve" smooth="yes"/>
      <point x="83" y="546" type="line" smooth="yes"/>
      <point x="85" y="560"/>
      <point x="94" y="571"/>
      <point x="108" y="571" type="curve" smooth="yes"/>
      <point x="276" y="571" type="line" smooth="yes"/>
      <point x="458" y="571"/>
      <point x="535" y="469"/>
      <point x="542" y="314" type="curve" smooth="yes"/>
      <point x="543" y="294"/>
      <point x="543" y="277"/>
      <point x="542" y="257" type="curve" smooth="yes"/>
      <point x="535" y="102"/>
      <point x="458" y="0"/>
      <point x="276" y="0" type="curve" smooth="yes"/>
      <point x="82" y="0" type="line" smooth="yes"/>
      <point x="68" y="0"/>
      <point x="57" y="11"/>
      <point x="57" y="25" type="curve" smooth="yes"/>
      <point x="57" y="117" type="line" smooth="yes"/>
      <point x="57" y="132"/>
      <point x="68" y="143"/>
      <point x="82" y="143" type="curve" smooth="yes"/>
      <point x="271" y="143" type="line" smooth="yes"/>
      <point x="338" y="143"/>
      <point x="386" y="183"/>
      <point x="390" y="256" type="curve" smooth="yes"/>
      <point x="391" y="276"/>
      <point x="391" y="295"/>
      <point x="390" y="315" type="curve" smooth="yes"/>
      <point x="387" y="388"/>
      <point x="338" y="428"/>
      <point x="271" y="428" type="curve" smooth="yes"/>
      <point x="91" y="428" type="line" smooth="yes"/>
    </contour>
    <contour>
      <point x="93" y="569"/>
      <point x="101" y="574"/>
      <point x="114" y="569" type="curve"/>
      <point x="207" y="539" type="line"/>
      <point x="218" y="535"/>
      <point x="225" y="521"/>
      <point x="218" y="511" type="curve" smooth="yes"/>
      <point x="196" y="479"/>
      <point x="169" y="434"/>
      <point x="169" y="397" type="curve" smooth="yes"/>
      <point x="169" y="366"/>
      <point x="174" y="347"/>
      <point x="194" y="338" type="curve" smooth="yes"/>
      <point x="210" y="331" type="line" smooth="yes"/>
      <point x="221" y="326"/>
      <point x="227" y="314"/>
      <point x="227" y="300" type="curve" smooth="yes"/>
      <point x="228" y="242" type="line" smooth="yes"/>
      <point x="228" y="226"/>
      <point x="208" y="216"/>
      <point x="193" y="219" type="curve" smooth="yes"/>
      <point x="152" y="223" type="line" smooth="yes"/>
      <point x="86" y="233"/>
      <point x="31" y="307"/>
      <point x="31" y="398" type="curve" smooth="yes"/>
      <point x="31" y="464"/>
      <point x="61" y="522"/>
      <point x="85" y="557" type="curve" smooth="yes"/>
    </contour>
    <contour>
      <point x="329" y="260" type="move" name="center"/>
    </contour>
    <contour>
      <point x="274" y="520" type="move" name="top"/>
    </contour>
    <contour>
      <point x="22" y="0" type="move" name="bottomleft"/>
    </contour>
    <contour>
      <point x="22" y="520" type="move" name="topleft"/>
    </contour>
    <contour>
      <point x="274" y="0" type="move" name="bottom"/>
    </contour>
  </outline>
</glyph>
<glyph name="resh-hb" format="1">
  <advance width="553"/>
  <unicode hex="05E8"/>
  <outline>
    <contour>
      <point x="474" y="0" type="line" smooth="yes"/>
      <point x="488" y="0"/>
      <point x="499" y="11"/>
      <point x="499" y="25" type="curve" smooth="yes"/>
      <point x="499" y="327" type="line" smooth="yes"/>
      <point x="499" y="505"/>
      <point x="403" y="571"/>
      <point x="223" y="571" type="curve" smooth="yes"/>
      <point x="65" y="571" type="line"/>
      <point x="51" y="571"/>
      <point x="40" y="560"/>
      <point x="40" y="546" type="curve" smooth="yes"/>
      <point x="40" y="460" type="line" smooth="yes"/>
      <point x="40" y="446"/>
      <point x="51" y="435"/>
      <point x="65" y="435" type="curve" smooth="yes"/>
      <point x="217" y="435" type="line" smooth="yes"/>
      <point x="295" y="435"/>
      <point x="330" y="395"/>
      <point x="330" y="321" type="curve" smooth="yes"/>
      <point x="330" y="25" type="line" smooth="yes"/>
      <point x="330" y="10"/>
      <point x="341" y="0"/>
      <point x="356" y="0" type="curve" smooth="yes"/>
    </contour>
    <contour>
      <point x="203" y="260" type="move" name="center"/>
    </contour>
    <contour>
      <point x="290" y="520" type="move" name="top"/>
    </contour>
    <contour>
      <point x="47" y="0" type="move" name="bottomleft"/>
    </contour>
    <contour>
      <point x="47" y="520" type="move" name="topleft"/>
    </contour>
    <contour>
      <point x="410" y="0" type="move" name="bottom"/>
    </contour>
  </outline>
</glyph>
<glyph name="bullet" format="1">
  <advance width="385"/>
  <unicode hex="2022"/>
  <outline>
    <contour>
      <point x="262" y="207"/>
      <point x="319" y="264"/>
      <point x="319" y="333" type="curve" smooth="yes"/>
      <point x="319" y="403"/>
      <point x="262" y="460"/>
      <point x="193" y="460" type="curve" smooth="yes"/>
      <point x="123" y="460"/>
      <point x="66" y="403"/>
      <point x="66" y="333" type="curve" smooth="yes"/>
      <point x="66" y="264"/>
      <point x="123" y="207"/>
      <point x="193" y="207" type="curve" smooth="yes"/>
    </contour>
  </outline>
</glyph>
<glyph name="perthousand" format="1">
  <advance width="1160"/>
  <unicode hex="2030"/>
  <outline>
    <contour>
      <point x="187" y="0" type="line" smooth="yes"/>
      <point x="205" y="0"/>
      <point x="213" y="7"/>
      <point x="222" y="19" type="curve" smooth="yes"/>
      <point x="715" y="669" type="line" smooth="yes"/>
      <point x="718" y="673"/>
      <point x="719" y="678"/>
      <point x="719" y="680" type="curve" smooth="yes"/>
      <point x="719" y="692"/>
      <point x="710" y="700"/>
      <point x="697" y="700" type="curve" smooth="yes"/>
      <point x="622" y="700" type="line" smooth="yes"/>
      <point x="603" y="700"/>
      <point x="596" y="693"/>
      <point x="587" y="681" type="curve" smooth="yes"/>
      <point x="93" y="31" type="line" smooth="yes"/>
      <point x="90" y="27"/>
      <point x="89" y="22"/>
      <point x="89" y="20" type="curve" smooth="yes"/>
      <point x="89" y="8"/>
      <point x="98" y="0"/>
      <point x="112" y="0" type="curve" smooth="yes"/>
    </contour>
    <contour>
      <point x="282" y="347"/>
      <point x="341" y="397"/>
      <point x="346" y="477" type="curve" smooth="yes"/>
      <point x="349" y="511"/>
      <point x="348" y="535"/>
      <point x="346" y="572" type="curve" smooth="yes"/>
      <point x="341" y="652"/>
      <point x="287" y="705"/>
      <point x="191" y="705" type="curve" smooth="yes"/>
      <point x="95" y="705"/>
      <point x="41" y="652"/>
      <point x="37" y="572" type="curve" smooth="yes"/>
      <point x="35" y="535"/>
      <point x="34" y="511"/>
      <point x="37" y="477" type="curve" smooth="yes"/>
      <point x="42" y="397"/>
      <point x="100" y="347"/>
      <point x="191" y="347" type="curve" smooth="yes"/>
    </contour>
    <contour>
      <point x="160" y="436"/>
      <point x="149" y="459"/>
      <point x="147" y="483" type="curve" smooth="yes"/>
      <point x="145" y="513"/>
      <point x="145" y="538"/>
      <point x="147" y="566" type="curve" smooth="yes"/>
      <point x="148" y="591"/>
      <point x="160" y="614"/>
      <point x="191" y="614" type="curve" smooth="yes"/>
      <point x="222" y="614"/>
      <point x="234" y="591"/>
      <point x="235" y="566" type="curve" smooth="yes"/>
      <point x="237" y="538"/>
      <point x="237" y="513"/>
      <point x="235" y="483" type="curve" smooth="yes"/>
      <point x="233" y="459"/>
      <point x="222" y="436"/>
      <point x="191" y="436" type="curve" smooth="yes"/>
    </contour>
    <contour>
      <point x="710" y="-5"/>
      <point x="769" y="47"/>
      <point x="774" y="127" type="curve" smooth="yes"/>
      <point x="777" y="161"/>
      <point x="776" y="184"/>
      <point x="774" y="221" type="curve" smooth="yes"/>
      <point x="769" y="302"/>
      <point x="715" y="355"/>
      <point x="619" y="355" type="curve" smooth="yes"/>
      <point x="523" y="355"/>
      <point x="469" y="302"/>
      <point x="465" y="221" type="curve" smooth="yes"/>
      <point x="463" y="184"/>
      <point x="462" y="161"/>
      <point x="465" y="127" type="curve" smooth="yes"/>
      <point x="470" y="47"/>
      <point x="528" y="-5"/>
      <point x="619" y="-5" type="curve" smooth="yes"/>
    </contour>
    <contour>
      <point x="589" y="85"/>
      <point x="578" y="109"/>
      <point x="576" y="133" type="curve" smooth="yes"/>
      <point x="574" y="163"/>
      <point x="574" y="187"/>
      <point x="576" y="216" type="curve" smooth="yes"/>
      <point x="577" y="240"/>
      <point x="589" y="263"/>
      <point x="620" y="263" type="curve" smooth="yes"/>
      <point x="651" y="263"/>
      <point x="663" y="240"/>
      <point x="664" y="216" type="curve" smooth="yes"/>
      <point x="666" y="187"/>
      <point x="666" y="163"/>
      <point x="664" y="133" type="curve" smooth="yes"/>
      <point x="662" y="109"/>
      <point x="651" y="85"/>
      <point x="620" y="85" type="curve" smooth="yes"/>
    </contour>
    <contour>
      <point x="1063" y="-5"/>
      <point x="1122" y="47"/>
      <point x="1127" y="127" type="curve" smooth="yes"/>
      <point x="1130" y="161"/>
      <point x="1129" y="184"/>
      <point x="1127" y="221" type="curve" smooth="yes"/>
      <point x="1122" y="302"/>
      <point x="1068" y="355"/>
      <point x="972" y="355" type="curve" smooth="yes"/>
      <point x="876" y="355"/>
      <point x="822" y="302"/>
      <point x="818" y="221" type="curve" smooth="yes"/>
      <point x="816" y="184"/>
      <point x="815" y="161"/>
      <point x="818" y="127" type="curve" smooth="yes"/>
      <point x="823" y="47"/>
      <point x="881" y="-5"/>
      <point x="972" y="-5" type="curve" smooth="yes"/>
    </contour>
    <contour>
      <point x="941" y="85"/>
      <point x="930" y="109"/>
      <point x="928" y="133" type="curve" smooth="yes"/>
      <point x="926" y="163"/>
      <point x="926" y="187"/>
      <point x="928" y="216" type="curve" smooth="yes"/>
      <point x="929" y="240"/>
      <point x="941" y="263"/>
      <point x="972" y="263" type="curve" smooth="yes"/>
      <point x="1003" y="263"/>
      <point x="1015" y="240"/>
      <point x="1016" y="216" type="curve" smooth="yes"/>
      <point x="1018" y="187"/>
      <point x="1018" y="163"/>
      <point x="1016" y="133" type="curve" smooth="yes"/>
      <point x="1014" y="109"/>
      <point x="1003" y="85"/>
      <point x="972" y="85" type="curve" smooth="yes"/>
    </contour>
  </outline>
</glyph>
<glyph name="twoinferior" format="1">
  <advance width="358"/>
  <unicode hex="2082"/>
  <outline>
    <contour>
      <point x="309" y="-170" type="line" smooth="yes"/>
      <point x="322" y="-170"/>
      <point x="331" y="-161"/>
      <point x="331" y="-148" type="curve" smooth="yes"/>
      <point x="331" y="-105" type="line" smooth="yes"/>
      <point x="331" y="-92"/>
      <point x="322" y="-83"/>
      <point x="309" y="-83" type="curve" smooth="yes"/>
      <point x="190" y="-83" type="line"/>
      <point x="271" y="-27"/>
      <point x="317" y="11"/>
      <point x="317" y="73" type="curve" smooth="yes"/>
      <point x="317" y="140"/>
      <point x="262" y="185"/>
      <point x="176" y="185" type="curve" smooth="yes"/>
      <point x="99" y="185"/>
      <point x="37" y="138"/>
      <point x="33" y="75" type="curve"/>
      <point x="33" y="63"/>
      <point x="39" y="56"/>
      <point x="51" y="56" type="curve"/>
      <point x="113" y="56" type="line" smooth="yes"/>
      <point x="123" y="56"/>
      <point x="129" y="59"/>
      <point x="137" y="74" type="curve" smooth="yes"/>
      <point x="142" y="83"/>
      <point x="148" y="101"/>
      <point x="176" y="101" type="curve" smooth="yes"/>
      <point x="200" y="101"/>
      <point x="210" y="87"/>
      <point x="210" y="69" type="curve" smooth="yes"/>
      <point x="210" y="30"/>
      <point x="163" y="3"/>
      <point x="51" y="-79" type="curve" smooth="yes"/>
      <point x="31" y="-94"/>
      <point x="26" y="-103"/>
      <point x="26" y="-113" type="curve" smooth="yes"/>
      <point x="26" y="-148" type="line" smooth="yes"/>
      <point x="26" y="-161"/>
      <point x="35" y="-170"/>
      <point x="48" y="-170" type="curve" smooth="yes"/>
    </contour>
  </outline>
</glyph>
<glyph name="nineinferior" format="1">
  <advance width="353"/>
  <unicode hex="2089"/>
  <outline>
    <contour>
      <point x="165" y="-171" type="line" smooth="yes"/>
      <point x="176" y="-171"/>
      <point x="187" y="-164"/>
      <point x="194" y="-156" type="curve" smooth="yes"/>
      <point x="278" y="-50" type="line" smooth="yes"/>
      <point x="291" y="-33"/>
      <point x="327" y="11"/>
      <point x="327" y="59" type="curve" smooth="yes"/>
      <point x="327" y="139"/>
      <point x="258" y="184"/>
      <point x="171" y="184" type="curve" smooth="yes"/>
      <point x="84" y="184"/>
      <point x="19" y="133"/>
      <point x="19" y="57" type="curve" smooth="yes"/>
      <point x="19" y="-22"/>
      <point x="91" y="-59"/>
      <point x="147" y="-63" type="curve"/>
      <point x="93" y="-131" type="line" smooth="yes"/>
      <point x="87" y="-138"/>
      <point x="83" y="-145"/>
      <point x="83" y="-151" type="curve" smooth="yes"/>
      <point x="83" y="-162"/>
      <point x="92" y="-171"/>
      <point x="103" y="-171" type="curve" smooth="yes"/>
    </contour>
    <contour>
      <point x="143" y="16"/>
      <point x="124" y="33"/>
      <point x="124" y="58" type="curve" smooth="yes"/>
      <point x="124" y="83"/>
      <point x="144" y="100"/>
      <point x="172" y="100" type="curve" smooth="yes"/>
      <point x="200" y="100"/>
      <point x="219" y="83"/>
      <point x="219" y="58" type="curve" smooth="yes"/>
      <point x="219" y="33"/>
      <point x="200" y="16"/>
      <point x="172" y="16" type="curve" smooth="yes"/>
    </contour>
  </outline>
</glyph>
<glyph name="infinity" format="1">
  <advance width="891"/>
  <unicode hex="221E"/>
  <outline>
    <contour>
      <point x="342" y="49"/>
      <point x="397" y="105"/>
      <point x="446" y="167" type="curve"/>
      <point x="494" y="104"/>
      <point x="550" y="49"/>
      <point x="637" y="49" type="curve" smooth="yes"/>
      <point x="781" y="49"/>
      <point x="845" y="163"/>
      <point x="845" y="271" type="curve" smooth="yes"/>
      <point x="845" y="379"/>
      <point x="781" y="493"/>
      <point x="637" y="493" type="curve" smooth="yes"/>
      <point x="550" y="493"/>
      <point x="495" y="435"/>
      <point x="446" y="372" type="curve"/>
      <point x="397" y="435"/>
      <point x="342" y="493"/>
      <point x="254" y="493" type="curve" smooth="yes"/>
      <point x="110" y="493"/>
      <point x="46" y="379"/>
      <point x="46" y="271" type="curve" smooth="yes"/>
      <point x="46" y="163"/>
      <point x="110" y="49"/>
      <point x="254" y="49" type="curve" smooth="yes"/>
    </contour>
    <contour>
      <point x="215" y="173"/>
      <point x="174" y="208"/>
      <point x="174" y="271" type="curve" smooth="yes"/>
      <point x="174" y="334"/>
      <point x="215" y="369"/>
      <point x="257" y="369" type="curve" smooth="yes"/>
      <point x="309" y="369"/>
      <point x="355" y="298"/>
      <point x="370" y="269" type="curve"/>
      <point x="356" y="241"/>
      <point x="309" y="173"/>
      <point x="257" y="173" type="curve" smooth="yes"/>
    </contour>
    <contour>
      <point x="580" y="173"/>
      <point x="534" y="242"/>
      <point x="520" y="269" type="curve"/>
      <point x="534" y="298"/>
      <point x="580" y="369"/>
      <point x="634" y="369" type="curve" smooth="yes"/>
      <point x="675" y="369"/>
      <point x="716" y="334"/>
      <point x="716" y="271" type="curve" smooth="yes"/>
      <point x="716" y="208"/>
      <point x="676" y="173"/>
      <point x="634" y="173" type="curve" smooth="yes"/>
    </contour>
  </outline>
</glyph>
<glyph name="notequal" format="1">
  <advance width="549"/>
  <unicode hex="2260"/>
  <outline>
    <contour>
      <point x="194" y="21" type="line"/>
      <point x="217" y="21"/>
      <point x="227" y="36"/>
      <point x="231" y="46" type="curve"/>
      <point x="257" y="109" type="line"/>
      <point x="473" y="109" type="line"/>
      <point x="488" y="109"/>
      <point x="499" y="120"/>
      <point x="499" y="134" type="curve"/>
      <point x="499" y="216" type="line"/>
      <point x="499" y="230"/>
      <point x="488" y="241"/>
      <point x="473" y="241" type="curve"/>
      <point x="313" y="241" type="line"/>
      <point x="362" y="359" type="line"/>
      <point x="473" y="359" type="line"/>
      <point x="488" y="359"/>
      <point x="499" y="370"/>
      <point x="499" y="384" type="curve"/>
      <point x="499" y="466" type="line"/>
      <point x="499" y="480"/>
      <point x="488" y="491"/>
      <point x="473" y="491" type="curve"/>
      <point x="417" y="491" type="line"/>
      <point x="442" y="549" type="line"/>
      <point x="444" y="554"/>
      <point x="444" y="557"/>
      <point x="444" y="559" type="curve" smooth="yes"/>
      <point x="444" y="570"/>
      <point x="434" y="580"/>
      <point x="423" y="580" type="curve"/>
      <point x="354" y="580" type="line"/>
      <point x="333" y="580"/>
      <point x="322" y="566"/>
      <point x="318" y="555" type="curve"/>
      <point x="291" y="491" type="line"/>
      <point x="78" y="491" type="line"/>
      <point x="64" y="491"/>
      <point x="53" y="480"/>
      <point x="53" y="466" type="curve"/>
      <point x="53" y="384" type="line"/>
      <point x="53" y="370"/>
      <point x="64" y="359"/>
      <point x="78" y="359" type="curve"/>
      <point x="236" y="359" type="line"/>
      <point x="187" y="241" type="line"/>
      <point x="78" y="241" type="line"/>
      <point x="64" y="241"/>
      <point x="53" y="230"/>
      <point x="53" y="216" type="curve"/>
      <point x="53" y="134" type="line"/>
      <point x="53" y="120"/>
      <point x="64" y="109"/>
      <point x="78" y="109" type="curve"/>
      <point x="132" y="109" type="line"/>
      <point x="109" y="52" type="line"/>
      <point x="107" y="47"/>
      <point x="107" y="44"/>
      <point x="107" y="42" type="curve" smooth="yes"/>
      <point x="107" y="31"/>
      <point x="116" y="21"/>
      <point x="128" y="21" type="curve"/>
    </contour>
  </outline>
</glyph>
<glyph name="Macron" format="1">
  <advance width="476"/>
  <unicode hex="F6D0"/>
  <outline>
    <contour>
      <point x="397" y="750" type="line" smooth="yes"/>
      <point x="410" y="750"/>
      <point x="420" y="760"/>
      <point x="420" y="773" type="curve" smooth="yes"/>
      <point x="420" y="849" type="line" smooth="yes"/>
      <point x="420" y="862"/>
      <point x="410" y="872"/>
      <point x="397" y="872" type="curve" smooth="yes"/>
      <point x="80" y="872" type="line" smooth="yes"/>
      <point x="67" y="872"/>
      <point x="57" y="862"/>
      <point x="57" y="849" type="curve" smooth="yes"/>
      <point x="57" y="773" type="line" smooth="yes"/>
      <point x="57" y="760"/>
      <point x="67" y="750"/>
      <point x="80" y="750" type="curve" smooth="yes"/>
    </contour>
  </outline>
</glyph>
<glyph name="Circumflex" format="1">
  <advance width="503"/>
  <outline>
    <contour>
      <point x="129" y="750" type="line" smooth="yes"/>
      <point x="141" y="750"/>
      <point x="153" y="751"/>
      <point x="164" y="757" type="curve" smooth="yes"/>
      <point x="252" y="805" type="line"/>
      <point x="340" y="757" type="line" smooth="yes"/>
      <point x="351" y="751"/>
      <point x="364" y="750"/>
      <point x="375" y="750" type="curve" smooth="yes"/>
      <point x="428" y="750" type="line" smooth="yes"/>
      <point x="438" y="750"/>
      <point x="444" y="755"/>
      <point x="444" y="764" type="curve" smooth="yes"/>
      <point x="444" y="770"/>
      <point x="441" y="775"/>
      <point x="436" y="780" type="curve" smooth="yes"/>
      <point x="333" y="889" type="line" smooth="yes"/>
      <point x="319" y="903"/>
      <point x="311" y="907"/>
      <point x="297" y="907" type="curve" smooth="yes"/>
      <point x="207" y="907" type="line" smooth="yes"/>
      <point x="194" y="907"/>
      <point x="185" y="903"/>
      <point x="172" y="889" type="curve" smooth="yes"/>
      <point x="68" y="780" type="line" smooth="yes"/>
      <point x="64" y="775"/>
      <point x="61" y="770"/>
      <point x="61" y="764" type="curve" smooth="yes"/>
      <point x="61" y="755"/>
      <point x="66" y="750"/>
      <point x="76" y="750" type="curve" smooth="yes"/>
    </contour>
  </outline>
</glyph>
<glyph name="eight.otlf" format="1">
  <advance width="667"/>
  <outline>
    <contour>
      <point x="534" y="-10"/>
      <point x="630" y="90"/>
      <point x="630" y="210" type="curve" smooth="yes"/>
      <point x="630" y="283"/>
      <point x="591" y="343"/>
      <point x="533" y="371" type="curve"/>
      <point x="578" y="403"/>
      <point x="601" y="450"/>
      <point x="601" y="510" type="curve" smooth="yes"/>
      <point x="601" y="621"/>
      <point x="519" y="710"/>
      <point x="333" y="710" type="curve" smooth="yes"/>
      <point x="145" y="710"/>
      <point x="62" y="620"/>
      <point x="62" y="509" type="curve" smooth="yes"/>
      <point x="62" y="448"/>
      <point x="87" y="401"/>
      <point x="133" y="371" type="curve"/>
      <point x="77" y="341"/>
      <point x="37" y="283"/>
      <point x="37" y="211" type="curve" smooth="yes"/>
      <point x="37" y="90"/>
      <point x="131" y="-10"/>
      <point x="333" y="-10" type="curve" smooth="yes"/>
    </contour>
    <contour>
      <point x="272" y="122"/>
      <point x="224" y="155"/>
      <point x="224" y="210" type="curve" smooth="yes"/>
      <point x="224" y="265"/>
      <point x="272" y="298"/>
      <point x="333" y="298" type="curve" smooth="yes"/>
      <point x="394" y="298"/>
      <point x="441" y="265"/>
      <point x="441" y="210" type="curve" smooth="yes"/>
      <point x="441" y="155"/>
      <point x="394" y="122"/>
      <point x="333" y="122" type="curve" smooth="yes"/>
    </contour>
    <contour>
      <point x="276" y="423"/>
      <point x="237" y="454"/>
      <point x="237" y="500" type="curve" smooth="yes"/>
      <point x="237" y="546"/>
      <point x="276" y="577"/>
      <point x="333" y="577" type="curve" smooth="yes"/>
      <point x="389" y="577"/>
      <point x="429" y="546"/>
      <point x="429" y="500" type="curve" smooth="yes"/>
      <point x="429" y="455"/>
      <point x="388" y="424"/>
      <point x="333" y="423" type="curve" smooth="yes"/>
    </contour>
  </outline>
</glyph>
<glyph name="f_f_l" format="1">
  <advance width="1085"/>
  <outline>
    <contour>
      <point x="265" y="0" type="line"/>
      <point x="279" y="0"/>
      <point x="290" y="11"/>
      <point x="290" y="25" type="curve"/>
      <point x="290" y="384" type="line"/>
      <point x="486" y="384" type="line"/>
      <point x="486" y="25" type="line"/>
      <point x="486" y="11"/>
      <point x="497" y="0"/>
      <point x="511" y="0" type="curve"/>
      <point x="633" y="0" type="line"/>
      <point x="648" y="0"/>
      <point x="659" y="11"/>
      <point x="659" y="25" type="curve"/>
      <point x="659" y="384" type="line"/>
      <point x="854" y="384" type="line"/>
      <point x="854" y="25" type="line"/>
      <point x="854" y="11"/>
      <point x="865" y="0"/>
      <point x="880" y="0" type="curve"/>
      <point x="1002" y="0" type="line"/>
      <point x="1016" y="0"/>
      <point x="1027" y="11"/>
      <point x="1027" y="25" type="curve"/>
      <point x="1027" y="715" type="line"/>
      <point x="1027" y="729"/>
      <point x="1016" y="740"/>
      <point x="1002" y="740" type="curve"/>
      <point x="880" y="740" type="line"/>
      <point x="865" y="740"/>
      <point x="854" y="729"/>
      <point x="854" y="715" type="curve"/>
      <point x="854" y="520" type="line"/>
      <point x="659" y="520" type="line"/>
      <point x="659" y="545" type="line"/>
      <point x="659" y="583"/>
      <point x="674" y="604"/>
      <point x="717" y="604" type="curve"/>
      <point x="775" y="604" type="line"/>
      <point x="790" y="604"/>
      <point x="801" y="615"/>
      <point x="801" y="629" type="curve"/>
      <point x="801" y="715" type="line"/>
      <point x="801" y="729"/>
      <point x="790" y="740"/>
      <point x="775" y="740" type="curve"/>
      <point x="709" y="740" type="line"/>
      <point x="572" y="740"/>
      <point x="486" y="689"/>
      <point x="486" y="550" type="curve"/>
      <point x="486" y="520" type="line"/>
      <point x="290" y="520" type="line"/>
      <point x="290" y="545" type="line"/>
      <point x="290" y="583"/>
      <point x="305" y="604"/>
      <point x="349" y="604" type="curve"/>
      <point x="420" y="604" type="line"/>
      <point x="434" y="604"/>
      <point x="445" y="615"/>
      <point x="445" y="629" type="curve"/>
      <point x="445" y="715" type="line"/>
      <point x="445" y="729"/>
      <point x="434" y="740"/>
      <point x="420" y="740" type="curve"/>
      <point x="341" y="740" type="line"/>
      <point x="203" y="740"/>
      <point x="117" y="689"/>
      <point x="117" y="550" type="curve"/>
      <point x="117" y="520" type="line"/>
      <point x="41" y="520" type="line"/>
      <point x="27" y="520"/>
      <point x="16" y="509"/>
      <point x="16" y="495" type="curve"/>
      <point x="16" y="409" type="line"/>
      <point x="16" y="395"/>
      <point x="27" y="384"/>
      <point x="41" y="384" type="curve"/>
      <point x="117" y="384" type="line"/>
      <point x="117" y="25" type="line"/>
      <point x="117" y="11"/>
      <point x="128" y="0"/>
      <point x="142" y="0" type="curve"/>
    </contour>
  </outline>
</glyph>
<glyph name="guilsinglleft.cap" format="1">
  <advance width="353"/>
  <outline>
    <contour>
      <point x="286" y="79"/>
      <point x="295" y="89"/>
      <point x="295" y="101" type="curve" smooth="yes"/>
      <point x="295" y="200" type="line" smooth="yes"/>
      <point x="295" y="221"/>
      <point x="290" y="229"/>
      <point x="277" y="242" type="curve" smooth="yes"/>
      <point x="175" y="343" type="line"/>
      <point x="277" y="444" type="line" smooth="yes"/>
      <point x="290" y="457"/>
      <point x="295" y="465"/>
      <point x="295" y="486" type="curve" smooth="yes"/>
      <point x="295" y="585" type="line" smooth="yes"/>
      <point x="295" y="597"/>
      <point x="286" y="607"/>
      <point x="274" y="607" type="curve" smooth="yes"/>
      <point x="270" y="607"/>
      <point x="263" y="605"/>
      <point x="256" y="599" type="curve" smooth="yes"/>
      <point x="49" y="398" type="line" smooth="yes"/>
      <point x="39" y="389"/>
      <point x="34" y="379"/>
      <point x="34" y="368" type="curve" smooth="yes"/>
      <point x="34" y="318" type="line" smooth="yes"/>
      <point x="34" y="307"/>
      <point x="39" y="297"/>
      <point x="49" y="288" type="curve" smooth="yes"/>
      <point x="256" y="87" type="line" smooth="yes"/>
      <point x="263" y="81"/>
      <point x="270" y="79"/>
      <point x="274" y="79" type="curve" smooth="yes"/>
    </contour>
  </outline>
</glyph>
<glyph name="guilsinglright.cap" format="1">
  <advance width="353"/>
  <outline>
    <contour>
      <point x="83" y="79"/>
      <point x="90" y="81"/>
      <point x="97" y="87" type="curve" smooth="yes"/>
      <point x="304" y="288" type="line" smooth="yes"/>
      <point x="314" y="297"/>
      <point x="319" y="307"/>
      <point x="319" y="318" type="curve" smooth="yes"/>
      <point x="319" y="368" type="line" smooth="yes"/>
      <point x="319" y="379"/>
      <point x="314" y="389"/>
      <point x="304" y="398" type="curve" smooth="yes"/>
      <point x="97" y="599" type="line" smooth="yes"/>
      <point x="90" y="605"/>
      <point x="83" y="607"/>
      <point x="79" y="607" type="curve" smooth="yes"/>
      <point x="67" y="607"/>
      <point x="58" y="597"/>
      <point x="58" y="585" type="curve" smooth="yes"/>
      <point x="58" y="486" type="line" smooth="yes"/>
      <point x="58" y="465"/>
      <point x="63" y="457"/>
      <point x="76" y="444" type="curve" smooth="yes"/>
      <point x="178" y="343" type="line"/>
      <point x="76" y="242" type="line" smooth="yes"/>
      <point x="63" y="229"/>
      <point x="58" y="221"/>
      <point x="58" y="200" type="curve" smooth="yes"/>
      <point x="58" y="101" type="line" smooth="yes"/>
      <point x="58" y="89"/>
      <point x="67" y="79"/>
      <point x="79" y="79" type="curve" smooth="yes"/>
    </contour>
  </outline>
</glyph>
<glyph name="minus.cap" format="1">
  <advance width="645"/>
  <outline>
    <contour>
      <point x="559" y="286" type="line" smooth="yes"/>
      <point x="574" y="286"/>
      <point x="585" y="297"/>
      <point x="585" y="311" type="curve" smooth="yes"/>
      <point x="585" y="388" type="line" smooth="yes"/>
      <point x="585" y="403"/>
      <point x="574" y="414"/>
      <point x="559" y="414" type="curve" smooth="yes"/>
      <point x="85" y="414" type="line" smooth="yes"/>
      <point x="71" y="414"/>
      <point x="60" y="403"/>
      <point x="60" y="388" type="curve" smooth="yes"/>
      <point x="60" y="311" type="line" smooth="yes"/>
      <point x="60" y="297"/>
      <point x="71" y="286"/>
      <point x="85" y="286" type="curve" smooth="yes"/>
    </contour>
  </outline>
</glyph>
<glyph name="parenleft.cap" format="1">
  <advance width="410"/>
  <outline>
    <contour>
      <point x="361" y="-117"/>
      <point x="373" y="-106"/>
      <point x="373" y="-92" type="curve" smooth="yes"/>
      <point x="373" y="-2" type="line" smooth="yes"/>
      <point x="373" y="12"/>
      <point x="361" y="22"/>
      <point x="348" y="23" type="curve" smooth="yes"/>
      <point x="239" y="30"/>
      <point x="208" y="149"/>
      <point x="208" y="351" type="curve" smooth="yes"/>
      <point x="208" y="553"/>
      <point x="239" y="671"/>
      <point x="348" y="678" type="curve" smooth="yes"/>
      <point x="361" y="679"/>
      <point x="373" y="689"/>
      <point x="373" y="703" type="curve" smooth="yes"/>
      <point x="373" y="793" type="line" smooth="yes"/>
      <point x="373" y="807"/>
      <point x="361" y="818"/>
      <point x="347" y="818" type="curve" smooth="yes"/>
      <point x="163" y="818"/>
      <point x="48" y="685"/>
      <point x="48" y="351" type="curve" smooth="yes"/>
      <point x="48" y="17"/>
      <point x="163" y="-117"/>
      <point x="347" y="-117" type="curve" smooth="yes"/>
    </contour>
  </outline>
</glyph>
